<svg width="98" height="98" fill="none" xmlns="http://www.w3.org/2000/svg"><g clip-path="url(#clip0)"><path d="M23.685 94.83l39.259-22.664 14.031 2.263-39.26 22.665-14.03-2.263z" fill="#D7C7ED"/><path d="M28.12 29.593l39.037-22.54-.002 64.149-32.997 19.053-1.236-.373c-2.553-.77-4.271-3.061-4.803-6.408v-53.88z" fill="#E5D4FC"/><path d="M30.105 83.474L71.21 60.316l3.474 5.79-1.933 1.818-38.797 22.4-.59-4.745-3.258-2.105z" fill="#E5D4FC"/><path d="M25.474 84.876c0 2.287 1.814 5.069 4.052 6.212 2.239 1.144 4.053.217 4.053-2.07 0-2.288-1.815-5.07-4.053-6.213m40.527-22.49c2.238 1.144 4.052 3.258 4.052 5.545 0 .87-.263 1.544-.712 1.982-.433.422-2.182 1.737-2.182 1.737" stroke="#000" stroke-linejoin="bevel"/><path d="M67.16 62.052v-55L25.476 31.121V85.21m2.314-59.05V17M61.37-8V6.475M30.105 83.226l40.527-22.91M32.42 91.331l40.527-22.91" stroke="#000" stroke-linejoin="bevel"/><path d="M25.474 32.844L22 34.85v-5.914L69.928 1.263v5.914L67.135 8.79" stroke="#000" stroke-linejoin="bevel"/><path d="M34.685 39.529L59.42 25.248v16.958L34.685 56.487V39.53z" fill="#fff" stroke="#000" stroke-linejoin="bevel"/><path d="M59.419 51.248L34.685 65.529m0 5l1.643-1.48c.927-.836 1.92-1.272 2.76-1.214l.234.016c.96.067 2.132-.61 3.092-1.785.96-1.176 2.131-1.852 3.092-1.785.96.067 2.131-.61 3.092-1.785.96-1.176 2.131-1.852 3.091-1.785.96.066 2.132-.61 3.092-1.786l.234-.285c.84-1.03 1.833-1.74 2.76-1.975l1.644-.417" stroke="#000" stroke-linejoin="bevel"/></g><defs><clipPath id="clip0"><path fill="#fff" d="M0 0h98v98H0z"/></clipPath></defs></svg>