<svg width="120" height="105" fill="none" xmlns="http://www.w3.org/2000/svg"><path d="M15.527 70.945v3.606m44.475 22.237v3.606" stroke="#000"/><path d="M58.208 46.683L118.6 73.811l-69.924 8.668L28.45 62.831l29.76-16.148z" fill="#A0D9BC"/><path d="M105.076 70.945v3.606" stroke="#000"/><path d="M105.043 74.547l-44.758 25.839-44.758-25.839M36.5 62.5l-10.486 6.024L18.5 73M89 65.285l8.022 4.631L102 73" stroke="#000" stroke-linejoin="bevel"/><path d="M104.751 74.964l13.848-1.153-46.86 27.539-11.507-.685 44.519-25.7z" fill="#A0D9BC"/><path d="M92.5 64l12.543 6.941-44.758 25.84-44.758-25.84L34 60.277" stroke="#000" stroke-linejoin="bevel"/><path d="M13.771 35.15l-.962 3.475m36.926 33.299l-.962 3.475m51.299-16.351l-.963 3.475" stroke="#000"/><path d="M99.079 62.511L49.048 75.468 12.81 38.62" stroke="#000" stroke-linejoin="bevel"/><path fill="#fff" d="M62.965 26.14L96.15 59.884 49.704 71.912 16.52 38.169z"/><path d="M63.803 22.189l36.238 36.847-50.03 12.957-36.239-36.848L63.803 22.19z" stroke="#000" stroke-linejoin="bevel"/><path d="M90.015 54.893L62.657 44.44l.382 11.408-11.544-3.113-3.606 13.373 42.126-11.215z" fill="#B1F1D0"/><path d="M89.647 54.215L62.288 43.76l.382 11.409-11.544-3.113-3.605 13.373" stroke="#000"/><circle transform="matrix(.96634 -.25726 .70601 .7082 36.85 42.367)" fill="#B1F1D0" r="6.618"/></svg>