<svg width="140" height="83" fill="none" xmlns="http://www.w3.org/2000/svg"><path d="M86.885 2l47.993 23.995-13.464 7.773L86.885 2zm28.216 40.521c-3.156 3.641-9.549 5.853-14.281 4.94-4.73-.912 6.278-2.195 9.434-5.836 3.156-3.64-2.736-8.26 1.995-7.348 4.731.912 6.008 4.603 2.852 8.244z" fill="#C7E0ED"/><path d="M72.695 25.538L13.385 60l35.857 20.855 59.31-34.462 3.274-3.252c2.111-2.412 3.141-5.528 3.392-6.784l.377-.754c-.905-3.316.879-6.406 1.884-7.537 2.714-4.522 5.653-4.9 6.784-4.522L91.591 4.193c-2.412-1.508-4.02-1.633-4.522-1.508-2.111 0-4.397 2.513-5.277 3.769-2.26 2.261-2.638 9.045-2.638 9.422-.301 3.618-4.431 7.948-6.459 9.662z" fill="#fff"/><circle r="8.724" transform="matrix(.98191 .18935 -.65499 .75564 125.666 31.244)" fill="#C7E0ED"/><path d="M70.695 24.538L9.443 59.898 47.3 81.755l61.252-35.361m-21.6-44.709l36.727 21.479m-8.391 11.308c0 4.371-3.069 9.686-6.854 11.87M77.531 11.86c0 4.8-3.344 10.62-7.468 13m45.156 9.8c0-3.954 2.776-8.763 6.2-10.74" stroke="#000" stroke-linejoin="bevel"/><path d="M77.531 12.103c0-3.605 2.531-7.99 5.653-9.792 1.564-.903 2.98-.987 4.003-.392" stroke="#000" stroke-linejoin="bevel"/><circle r="6.527" transform="matrix(.86601 -.50003 -.00003 1 120.871 30.697)" stroke="#000" stroke-linejoin="bevel"/><circle r="1.823" transform="matrix(.86601 -.50003 -.00003 1 120.871 30.697)" stroke="#000" stroke-linejoin="bevel"/><path transform="scale(1.22477 .70707) rotate(-45 107.01 16.168)" fill="#D4EEFC" stroke="#000" stroke-linejoin="bevel" d="M0 0h27.702v13.394H0z"/><path d="M64.376 53L40.385 66.85M67.376 56L43.385 69.85" stroke="#000" stroke-linejoin="bevel"/><path d="M74.385 44.85l14.295-7.997c2.764-1.547 4.858-3.448 6.112-5.549l1.493-2.5 11.6 6.696-1.493 2.5c-1.254 2.102-3.348 4.003-6.112 5.55l-14.295 7.997-11.6-6.697z" fill="#D4EEFC" stroke="#000" stroke-linejoin="bevel"/><path d="M92.233 26l-1.493 2.501c-1.253 2.101-3.347 4.002-6.112 5.549l-14.295 7.997M88.233 24l-1.493 2.501c-1.253 2.101-3.347 4.002-6.112 5.549l-14.295 7.997" stroke="#000" stroke-linejoin="bevel"/></svg>