<svg width="72" height="89" fill="none" xmlns="http://www.w3.org/2000/svg"><path fill-rule="evenodd" clip-rule="evenodd" d="M58.04 46.513l-16.717-22.86L30.55 50.824l-6.705-3.871L7.127 75.909 40.56 56.605l17.478-10.092z" fill="#C4C4C4"/><circle r="7.052" transform="matrix(.86601 -.50003 -.00003 1 16.533 40.067)" fill="#C4C4C4"/><path d="M70.693 51.564l-16.715-22.86-10.774 27.173-6.706-3.872L19.78 80.962l50.913-29.397z" fill="#fff"/><path d="M70.693 51.564l-16.715-22.86-10.774 27.173-6.706-3.872L19.78 80.962" stroke="#000"/><circle r="7.052" transform="matrix(.86601 -.50003 -.00003 1 29.186 45.118)" fill="#fff"/><path d="M29.35 52.305c-3.374 1.948-6.109.374-6.109-3.515 0-3.89 2.735-8.62 6.109-10.569" stroke="#000"/><path d="M8.061 37.385L71.077 1l-.002 50.49L8.06 87.875l.001-50.49z" stroke="#000" stroke-linejoin="bevel"/><circle r="2.092" transform="matrix(.86601 -.50003 -.00003 1 12.765 41.838)" fill="#000"/><path d="M4.258 36.074l9.232 3.801m-11.404 0l9.775 3.802" stroke="#000"/><circle r="2.092" transform="matrix(.86601 -.50003 -.00003 1 67.074 9.253)" fill="#000"/><path d="M58.567 3.489L67.8 7.29m-11.405 0l9.775 3.802" stroke="#000"/><circle r="2.092" transform="matrix(.86601 -.50003 -.00003 1 11.68 80.94)" fill="#000"/><path d="M3.172 75.176l9.232 3.802M1 78.978l9.776 3.801" stroke="#000"/></svg>