<svg width="57" height="109" fill="none" xmlns="http://www.w3.org/2000/svg"><path d="M3.001 103.583l39.26-22.664 14.03 2.263-39.259 22.665-14.031-2.264z" fill="#D7C7ED"/><path d="M7.436 38.346l39.038-22.54-.002 64.149-32.998 19.052-1.235-.372c-2.554-.77-4.272-3.061-4.803-6.409v-53.88z" fill="#fff"/><path d="M9.422 92.226L50.527 69.07 54 74.858l-1.933 1.818L13.27 99.077l-.59-4.745-3.26-2.106z" fill="#fff"/><path d="M4.79 93.629c0 2.287 1.815 5.069 4.053 6.212 2.238 1.144 4.052.217 4.052-2.07 0-2.288-1.814-5.07-4.053-6.213m40.528-22.49c2.237 1.144 4.052 3.258 4.052 5.545 0 .87-.263 1.544-.712 1.982-.434.421-2.183 1.737-2.183 1.737" stroke="#000" stroke-linejoin="bevel"/><path d="M46.477 70.805v-55L4.792 39.874v54.089m2.314-73.526v14.475M40.685.753v14.475M9.422 91.979l40.526-22.91m-38.211 31.015l40.526-22.91" stroke="#000" stroke-linejoin="bevel"/><path d="M4.79 41.597l-3.474 2.006v-5.914l47.928-27.673v5.913l-2.793 1.613" stroke="#000" stroke-linejoin="bevel"/><path transform="matrix(.86601 -.50003 -.00003 1 14.001 48.282)" stroke="#000" stroke-linejoin="bevel" d="M0 0h28.561v16.958H0z"/><path d="M38.735 60L14.001 74.282M38.735 65l-1.643.418c-.928.235-1.92.945-2.761 1.974l-.233.286c-.96 1.176-2.132 1.852-3.092 1.785v0c-.96-.066-2.132.61-3.092 1.785v0c-.96 1.176-2.131 1.852-3.092 1.786v0c-.96-.067-2.131.609-3.092 1.785v0c-.96 1.176-2.131 1.852-3.091 1.785l-.234-.016c-.84-.059-1.833.378-2.761 1.214l-1.643 1.48" stroke="#000" stroke-linejoin="bevel"/></svg>