<svg width="119" height="98" fill="none" xmlns="http://www.w3.org/2000/svg"><path d="M55.411 79.947L114.5 44.824 72.353 19.205l-11.983-1.24 37.188 20.661v8.264L41.775 79.947h13.636z" fill="#C7E0ED"/><path d="M60.535 20.858L5 52.593l37.023 21.156 55.535-31.734-37.023-21.157z" fill="#D4EEFC"/><path d="M60.535 18.129l36.016 20.58-54.528 31.158-36.015-20.58L60.535 18.13z" stroke="#000" stroke-linejoin="bevel"/><path d="M5 52.262l37.023 21.487 55.535-32.23" stroke="#000" stroke-linejoin="bevel"/><path d="M62.023 49.783l2.837-2.2a16.55 16.55 0 015.826-2.898l.746-.2a13.787 13.787 0 006.386-3.798 13.786 13.786 0 014.831-3.276l4.166-1.677M69.46 26.643l-1.99.597a3.371 3.371 0 00-2.097 1.828v0a3.37 3.37 0 01-2.809 1.96l-.383.029a2.98 2.98 0 00-2.482 1.732v0a2.98 2.98 0 01-2.483 1.733l-.613.047a2.98 2.98 0 00-2.483 1.733v0a2.98 2.98 0 01-2.483 1.733l-.666.05a4.113 4.113 0 00-2.808 1.423l-1.015 1.184M66.981 24.99l-2.098.607a3.425 3.425 0 00-2.144 1.824v0a3.425 3.425 0 01-2.843 1.949l-.517.038c-1.09.08-2.053.74-2.521 1.729v0a3.038 3.038 0 01-2.522 1.728l-.741.055c-1.09.08-2.054.74-2.522 1.729v0a3.038 3.038 0 01-2.522 1.729l-.753.055a4.335 4.335 0 00-2.92 1.442l-1.036 1.164" stroke="#000" stroke-linejoin="bevel"/><path d="M5 55.292l37.023 20.936 55.535-31.404" stroke="#000" stroke-linejoin="bevel"/><path d="M5 58.047l37.023 21.487 55.535-32.23m-58.482 4.15c-1.164.672-2.721 1.022-4.305 1.022-1.584 0-3.141-.35-4.305-1.022-1.167-.674-1.637-1.487-1.637-2.197s.47-1.523 1.637-2.196c1.164-.672 2.72-1.022 4.305-1.022 1.584 0 3.14.35 4.305 1.022 1.166.673 1.636 1.486 1.636 2.196 0 .71-.47 1.523-1.636 2.197z" stroke="#000" stroke-linejoin="bevel"/><path fill-rule="evenodd" clip-rule="evenodd" d="M51.535 51.505c-3.667-1.724-9.073-1.6-12.49.373-3.427 1.979-3.634 5.112-.62 7.23l1.304-.757c-2.298-1.699-2.093-4.16.615-5.723 2.7-1.558 6.945-1.68 9.887-.367l1.304-.756z" fill="#000"/></svg>