<svg width="134" height="76" fill="none" xmlns="http://www.w3.org/2000/svg"><path d="M62 75.5L133.5 33l-51-31L68 .5l45 25v10l-67.5 40H62z" fill="#C8E0ED"/><path d="M68.2 4L1 42.4 45.8 68 113 29.6 68.2 4z" fill="#fff"/><path d="M111.992 25.6L45.8 63.424 2.008 38.4 68.2.576 111.992 25.6z" stroke="#000" stroke-linejoin="bevel"/><path d="M1 42l44.8 26L113 29" stroke="#000" stroke-linejoin="bevel"/><path d="M100 22l-5.04 2.029c-2.21.89-4.203 2.24-5.846 3.965v0a16.684 16.684 0 01-7.728 4.594l-.907.245c-2.556.69-4.95 1.88-7.041 3.502L70 39m9-28l-2.409.722a4.079 4.079 0 00-2.538 2.212v0a4.079 4.079 0 01-3.398 2.371l-.463.036a3.606 3.606 0 00-3.004 2.096v0a3.606 3.606 0 01-3.005 2.097l-.741.057a3.606 3.606 0 00-3.005 2.096v0a3.606 3.606 0 01-3.004 2.097l-.806.062c-1.316.1-2.538.72-3.398 1.721L52 28M76 9l-2.54.734a4.145 4.145 0 00-2.593 2.207v0a4.145 4.145 0 01-3.44 2.358l-.626.047a3.676 3.676 0 00-3.051 2.091v0a3.676 3.676 0 01-3.051 2.092l-.898.067a3.676 3.676 0 00-3.051 2.091v0a3.676 3.676 0 01-3.051 2.092l-.912.068c-1.36.1-2.627.726-3.533 1.744L48 26" stroke="#000" stroke-linejoin="bevel"/><path d="M1 45.667L45.8 71 113 33" stroke="#000" stroke-linejoin="bevel"/><path d="M1 49l44.8 26L113 36" stroke="#000" stroke-linejoin="bevel"/><circle r="5.864" transform="scale(1.22477 .70706) rotate(45 -50.381 63.619)" stroke="#000" stroke-linejoin="bevel"/><path fill-rule="evenodd" clip-rule="evenodd" d="M57.31 41.084c-4.439-2.086-10.98-1.935-15.115.452-4.146 2.393-4.396 6.185-.75 8.747l.868-.504c-3.168-2.283-2.919-5.626.748-7.743 3.657-2.111 9.425-2.26 13.38-.448l.869-.504z" fill="#000"/></svg>