<svg width="146" height="78" fill="none" xmlns="http://www.w3.org/2000/svg"><path d="M113.292 21.088L145 40l-16.5 1.5V33L98.132 15.8l15.16 5.288z" fill="#A0D9BC"/><path d="M134.5 36l11 4-58.66 33.957-14.68-2.165L134.5 36zM72.292 7.02l30.131 17.395L91 21.432l-33.868-19.7 15.16 5.289z" fill="#A0D9BC"/><path d="M90.5 20.432l12.004 3.895-56.373 32.545-14.68-2.166L90.5 20.432z" fill="#A0D9BC"/><path fill="#fff" d="M54.22 3.753l27.386 15.81L29 49.933 1.614 34.123z"/><path d="M57.374 1.932l30.13 17.395-56.373 32.545L1 34.477 57.374 1.932zM11 33.932l22.223 12.83M14 31.932l22.223 12.83" stroke="#000" stroke-linejoin="bevel"/><path d="M87.505 22.327L31.13 54.872 1 37.477" stroke="#000" stroke-linejoin="bevel"/><path fill="#fff" d="M96.2 17.255l27.638 15.957-53.585 30.934L42.615 48.19z"/><path d="M98.374 16l30.131 17.395L72.131 65.94 42 48.545 98.374 16z" stroke="#000" stroke-linejoin="bevel"/><path d="M110.223 38.83l10.394-6L98.394 20 88 26M52 48l22.223 12.83M55 46l22.223 12.83" stroke="#000" stroke-linejoin="bevel"/><path d="M91.145 29.756l13.532 7.812-25.318 14.616-13.532-7.812 25.318-14.616z" fill="#B1F1D0" stroke="#000" stroke-linejoin="bevel"/><path d="M128.505 36.395L72.131 68.94 42 51.545" stroke="#000" stroke-linejoin="bevel"/><path d="M128.505 39.413L72.131 71.958 42 54.563M58.632 26.95c-4.491 2.733-11.773 2.733-16.264 0-4.49-2.734-4.49-7.166 0-9.9 4.491-2.733 11.773-2.733 16.264 0 4.49 2.734 4.49 7.166 0 9.9z" stroke="#000" stroke-linejoin="bevel"/></svg>