<svg width="101" height="68" fill="none" xmlns="http://www.w3.org/2000/svg"><path d="M81.364 42.974L99.877 39.5l-43.29 24.99-12.211-.163 36.988-21.353z" fill="#C2C2C2"/><path d="M67.377 20.5l32.5 19-18.5 4.5-.5-9-14-7.125.5-7.375z" fill="#C4C4C4"/><path d="M69.377 28.5l11.686 6.625L44.47 56.251 7.877 35.125l2.5-1.562m-.75 4.56l-1.75 1.122L44.47 60.37l36.593-21.125-1.843-1.122M9.627 42.088l-1.75 1.123L44.47 64.336l36.593-21.125-1.843-1.123" stroke="#000" stroke-linejoin="bevel"/><path d="M37.377 5l29.427 16.5c1.64 9.242-3.494 18.458-14.158 25.416l-8.176 5.335-33.656-19.43c15.353-5.537 25.144-15.007 26.298-25.436L37.376 5z" fill="#fff"/><path d="M44.467 51.672L9.011 31.203C25.174 24.483 34.97 13.6 34.97 1.829V.826l31.493 16.461c3.528 11.26-2.565 22.927-16.72 31.274l-5.276 3.11z" stroke="#000" stroke-linejoin="bevel"/><path d="M57.877 19.5L39.037 9c-.668 3.343-2.075 6.598-4.16 9.693" stroke="#000" stroke-linejoin="bevel"/></svg>