<svg width="113" height="107" fill="none" xmlns="http://www.w3.org/2000/svg"><g filter="url(#filter0_d)"><path d="M90.918 59l17.5 3.1L44.5 99 27 95.9 90.918 59zm-23-14l23.813 3.747-63.918 36.9L4 81.9 67.918 45z" fill="#D8C8ED"/><path d="M77.292 6.97L12.486 44.39 5 81.48 17.96 74" stroke="#000" stroke-linecap="round" stroke-linejoin="bevel"/><path d="M27.959 96l-4.114-1.206L16.959 70l-5.612-19.644" stroke="#000" stroke-linecap="round" stroke-linejoin="bevel"/><path d="M16.46 42.947L76.887 8.058 90.84 56.9 30.415 91.789 16.462 42.947z" fill="#fff"/><path d="M13.012 44.062l64.806-37.42 14.967 52.384-64.807 37.419-14.966-52.383z" stroke="#000" stroke-linejoin="bevel"/><path d="M25.368 44.171c.362 1.446-.212 3.458-1.283 4.494-1.07 1.037-2.232.705-2.594-.74-.362-1.446.212-3.458 1.283-4.494 1.07-1.037 2.232-.705 2.594.74zm8.429-4.603c.362 1.445-.212 3.457-1.283 4.493-1.07 1.037-2.232.705-2.594-.74-.362-1.446.212-3.457 1.282-4.494 1.071-1.036 2.233-.705 2.595.74zm8.229-4.613c.362 1.445-.212 3.457-1.283 4.493-1.07 1.037-2.232.705-2.594-.74-.362-1.446.212-3.458 1.283-4.494 1.07-1.036 2.232-.705 2.594.74zm8.229-4.614c.362 1.446-.212 3.458-1.283 4.494-1.07 1.037-2.232.705-2.594-.74-.362-1.446.212-3.458 1.282-4.494 1.071-1.036 2.233-.705 2.595.74zm8.229-4.613c.362 1.446-.212 3.458-1.282 4.494-1.071 1.036-2.233.705-2.595-.74-.362-1.446.212-3.458 1.283-4.494 1.07-1.037 2.232-.705 2.594.74zm8.23-4.613c.362 1.446-.212 3.458-1.283 4.494-1.07 1.036-2.232.705-2.594-.74-.362-1.446.212-3.458 1.282-4.494 1.071-1.037 2.233-.705 2.595.74zm8.212-4.263c.362 1.446-.213 3.458-1.283 4.494-1.07 1.036-2.232.705-2.594-.74-.363-1.446.212-3.458 1.282-4.494 1.071-1.037 2.233-.705 2.595.74z" fill="#E5D4FC"/><path d="M17.182 42.208C16.444 40.744 16 39.16 16 37.713c0-3.317 2.328-4.661 5.2-3.003 2.873 1.659 5.2 5.692 5.201 9.008 0 2.586-1.416 3.973-3.401 3.672m2.182-10.182C24.444 35.744 24 34.16 24 32.713c0-3.317 2.328-4.661 5.2-3.003 2.872 1.659 5.2 5.692 5.201 9.008 0 2.586-1.416 3.973-3.401 3.672m2.182-10.182C32.444 30.744 32 29.16 32 27.713c0-3.317 2.328-4.661 5.2-3.003 2.872 1.659 5.2 5.692 5.201 9.008 0 2.586-1.416 3.973-3.401 3.672m2.182-10.183C40.444 25.744 40 24.16 40 22.713c0-3.317 2.328-4.661 5.2-3.003 2.872 1.659 5.2 5.692 5.201 9.008 0 2.587-1.416 3.973-3.401 3.672m3.182-9.183C49.444 21.744 49 20.16 49 18.713c0-3.317 2.328-4.661 5.2-3.003 2.872 1.659 5.2 5.692 5.201 9.008 0 2.587-1.416 3.973-3.401 3.672m2.182-10.183C57.444 16.744 57 15.16 57 13.713c0-3.317 2.328-4.661 5.2-3.003 2.873 1.659 5.2 5.692 5.201 9.008 0 2.587-1.416 3.973-3.401 3.672m2.182-10.183C65.444 11.744 65 10.16 65 8.713c0-3.317 2.328-4.661 5.2-3.003 2.873 1.659 5.2 5.692 5.201 9.008 0 2.587-1.416 3.973-3.401 3.672M27.24 61.613l-1.67-5.938 4.99-2.881 1.67 5.939-4.99 2.88zm9-5l-1.67-5.938 4.99-2.881 1.67 5.939-4.99 2.88zm9-5l-1.67-5.938 4.99-2.881 1.67 5.939-4.99 2.88zm9-5l-1.67-5.938 4.99-2.881 1.67 5.939-4.99 2.88zm9-5l-1.67-5.938 4.99-2.881 1.67 5.939-4.99 2.88zm9-5l-1.67-5.939 4.99-2.88 1.67 5.939-4.99 2.88z" stroke="#000"/><path d="M30.24 71.613l-1.67-5.939 4.99-2.88 1.67 5.939-4.99 2.88zm9-5l-1.67-5.938 4.99-2.881 1.67 5.939-4.99 2.88zm9-5l-1.67-5.938 4.99-2.881 1.67 5.939-4.99 2.88zm9-5l-1.67-5.938 4.99-2.881 1.67 5.939-4.99 2.88zm9-5l-1.67-5.938 4.99-2.881 1.67 5.939-4.99 2.88zm9-5l-1.67-5.938 4.99-2.881 1.67 5.939-4.99 2.88z" stroke="#E5D4FC"/></g><defs><filter id="filter0_d" x="0" y="4.5" width="112.418" height="102.501" filterUnits="userSpaceOnUse" color-interpolation-filters="sRGB"><feFlood flood-opacity="0" result="BackgroundImageFix"/><feColorMatrix in="SourceAlpha" values="0 0 0 0 0 0 0 0 0 0 0 0 0 0 0 0 0 0 127 0" result="hardAlpha"/><feOffset dy="4"/><feGaussianBlur stdDeviation="2"/><feComposite in2="hardAlpha" operator="out"/><feColorMatrix values="0 0 0 0 0 0 0 0 0 0 0 0 0 0 0 0 0 0 0.25 0"/><feBlend in2="BackgroundImageFix" result="effect1_dropShadow"/><feBlend in="SourceGraphic" in2="effect1_dropShadow" result="shape"/></filter></defs></svg>