<svg width="86" height="86" fill="none" xmlns="http://www.w3.org/2000/svg"><path d="M44.302 55.461l24.834-5.015-17.85 5.015-15.394 14.177-24.416-14.095 32.826-.082z" fill="#E6D795"/><path fill="#E6D795" d="M61.475 27.175L85.89 41.27l-16.474 9.51-24.415-14.095z"/><path d="M35.223 69.78L1 50.222l8.381-14.667 34.922 19.556-9.08 14.667z" fill="#fff"/><path d="M35.223 69.78L1 50.222l8.381-14.667 34.922 19.556-9.08 14.667z" stroke="#000" stroke-width="1.5" stroke-linejoin="bevel"/><path d="M35.914 30.667l-23.738 4.47 32.079 17.88 23.097-4.47-31.438-17.88z" fill="#fff"/><path d="M69.446 50.223L35.223 30.667 43.603 16l34.922 19.556-9.08 14.667z" fill="#fff"/><path d="M69.446 50.223L35.223 30.667 43.603 16l34.922 19.556-9.08 14.667z" stroke="#000" stroke-width="1.5" stroke-linejoin="bevel"/><path d="M67.768 48.527l7.615-12.273-31.035-17.161-7.03 12.273m-2.095-.699L9.38 35.556l34.921 19.556 25.144-4.889-34.223-19.556z" stroke="#000" stroke-width="1.5" stroke-linejoin="bevel"/><path d="M34.524 33.385l8.381 4.54-16.718 3.236-8.425-4.633 16.762-3.143z" fill="#FFEFA6" stroke="#000" stroke-width="1.5" stroke-linejoin="bevel"/><path d="M45.7 39.671l8.381 4.54-16.719 3.236-8.425-4.633L45.7 39.67zm-2.794-7.97l.563-.645c.55-.63.923-1.394 1.08-2.215a4.715 4.715 0 011.121-2.26l.366-.41c.315-.35.592-.734.826-1.143l.745-1.302m-2.605 9.372l.563-.645c.55-.63.923-1.394 1.08-2.215a4.716 4.716 0 011.12-2.261l.367-.409a6.69 6.69 0 00.826-1.143l.745-1.302m15.553 19.848l.563-.644c.55-.63.923-1.395 1.08-2.215a4.716 4.716 0 011.12-2.262l.367-.408a6.68 6.68 0 00.826-1.144l.745-1.302" stroke="#000" stroke-width="1.5" stroke-linejoin="bevel"/></svg>