<svg width="50" height="97" fill="none" xmlns="http://www.w3.org/2000/svg"><path d="M2.495 92.288l34.853-20.12 12.456 2.009-34.853 20.12-12.456-2.009z" fill="#D7C7ED"/><path d="M6.433 34.373l34.656-20.01-.002 56.949-29.294 16.914-1.096-.33c-2.268-.684-3.792-2.719-4.264-5.69V34.373z" fill="#E5D4FC"/><path d="M8.195 82.206l36.492-20.558 3.083 5.14-1.716 1.614-34.442 19.886-.524-4.213-2.893-1.869z" fill="#E5D4FC"/><path d="M4.084 83.451c0 2.03 1.61 4.5 3.598 5.515 1.987 1.016 3.598.193 3.597-1.838 0-2.03-1.61-4.5-3.597-5.515m35.976-19.966c1.987 1.016 3.598 2.892 3.598 4.923 0 .773-.233 1.37-.632 1.759-.385.374-1.938 1.542-1.938 1.542" stroke="#000" stroke-linejoin="bevel"/><path d="M41.09 63.19V14.362L4.086 35.73v48.018M6.14 31.325v-8.131M35.95 1v12.85M8.195 81.986l35.978-20.339M10.251 89.182l35.977-20.34" stroke="#000" stroke-linejoin="bevel"/><path d="M4.084 37.26L1 39.04v-5.25L43.548 9.223v5.25l-2.48 1.432" stroke="#000" stroke-linejoin="bevel"/><path d="M12.261 43.194L34.22 30.515V45.57L12.26 58.25V43.194z" fill="#fff" stroke="#000" stroke-linejoin="bevel"/><path d="M34.219 53.597L12.26 66.276m0 4.438l1.46-1.314c.823-.742 1.704-1.13 2.45-1.077l.208.014c.852.06 1.892-.54 2.745-1.585.852-1.043 1.892-1.644 2.744-1.584.853.059 1.893-.542 2.745-1.585.853-1.044 1.892-1.644 2.745-1.585.852.06 1.892-.541 2.745-1.585l.207-.253c.746-.914 1.627-1.544 2.451-1.754l1.459-.37" stroke="#000" stroke-linejoin="bevel"/></svg>