<svg width="97" height="85" fill="none" xmlns="http://www.w3.org/2000/svg"><path d="M12.624 57.68v2.931M48.782 78.69v2.932" stroke="#000"/><path d="M47.324 37.954L96.423 60.01l-56.85 7.048L23.13 51.083l24.194-13.129z" fill="#A0D9BC"/><path d="M85.429 57.68v2.931" stroke="#000"/><path d="M85.402 60.608l-36.39 21.008-36.388-21.008" stroke="#000" stroke-linejoin="bevel"/><path d="M85.164 60.947l11.259-.938L58.325 82.4l-9.355-.557 36.194-20.895z" fill="#A0D9BC"/><path d="M75.204 52.033l10.198 5.643-36.39 21.008-36.388-21.008 15.018-8.67" stroke="#000" stroke-linejoin="bevel"/><path d="M11.197 28.577l-.783 2.825m30.021 27.073l-.783 2.826M81.36 48.007l-.783 2.826" stroke="#000"/><path d="M80.552 50.822L39.876 61.356 10.414 31.4" stroke="#000" stroke-linejoin="bevel"/><path fill="#B1F1D0" d="M51.191 21.253l26.98 27.433-37.761 9.779-26.98-27.433z"/><path d="M51.872 18.04l29.462 29.957L40.66 58.531 11.196 28.574 51.872 18.04z" stroke="#000" stroke-linejoin="bevel"/><path d="M73.183 44.629l-22.243-8.5.31 9.276-9.385-2.53-2.931 10.872 34.249-9.118z" fill="#fff"/><path d="M72.883 44.077L50.64 35.578l.31 9.275-9.385-2.53-2.931 10.872" stroke="#000"/><circle transform="matrix(.96634 -.25726 .70601 .7082 29.96 34.445)" fill="#fff" r="5.381"/></svg>