<svg width="125" height="73" fill="none" xmlns="http://www.w3.org/2000/svg"><path d="M77.456 1.776l42.784 21.301-12.003 6.901L77.456 1.776zm25.153 35.972c-2.813 3.233-8.513 5.196-12.73 4.386-4.218-.81 5.596-1.949 8.41-5.181 2.813-3.232-2.44-7.334 1.778-6.524 4.217.81 5.356 4.087 2.542 7.32z" fill="#C7E0ED"/><path d="M64.806 22.671L11.932 53.266 43.898 71.78l52.874-30.595L99.69 38.3c1.881-2.142 2.8-4.907 3.024-6.023l.336-.669c-.807-2.944.784-5.687 1.68-6.691 2.419-4.015 5.039-4.35 6.047-4.015L81.651 3.722c-2.15-1.338-3.584-1.45-4.032-1.338-1.881 0-3.92 2.23-4.703 3.346-2.016 2.007-2.352 8.03-2.352 8.364-.269 3.212-3.95 7.056-5.758 8.577z" fill="#D4EEFC"/><ellipse rx="7.776" ry="7.759" transform="matrix(.98206 .18859 -.65655 .75429 112.028 27.738)" fill="#C7E0ED"/><path d="M63.023 21.783L8.42 53.175l33.748 19.402 54.605-31.392M77.516 1.496l32.741 19.067m-7.482 10.04c0 3.88-2.735 8.598-6.11 10.538M69.117 10.53c0 4.26-2.98 9.426-6.657 11.54m40.254 8.7c0-3.51 2.475-7.78 5.527-9.535" stroke="#000" stroke-linejoin="bevel"/><path d="M69.117 10.744c0-3.2 2.256-7.092 5.04-8.692 1.394-.802 2.656-.876 3.568-.349" stroke="#000" stroke-linejoin="bevel"/><ellipse rx="5.813" ry="5.795" transform="matrix(.86691 -.49846 -.00003 1 107.753 27.252)" stroke="#000" stroke-linejoin="bevel"/><ellipse rx="1.623" ry="1.618" transform="matrix(.86691 -.49846 -.00003 1 107.753 27.252)" stroke="#000" stroke-linejoin="bevel"/><path transform="scale(1.22604 .70484) rotate(-45 95.298 14.4)" fill="#fff" stroke="#000" stroke-linejoin="bevel" d="M0 0h24.67v11.928H0z"/><path d="M57.39 47.051L36.001 59.347m24.063-9.633L38.677 62.01" stroke="#000" stroke-linejoin="bevel"/><path d="M66.312 39.816l12.283-6.843c2.767-1.542 4.863-3.437 6.119-5.531l1.121-1.872 10.341 5.945-1.121 1.872c-1.256 2.094-3.352 3.99-6.12 5.531l-12.282 6.843-10.341-5.945z" fill="#fff" stroke="#000" stroke-linejoin="bevel"/><path d="M82.224 23.082l-1.122 1.871c-1.255 2.095-3.351 3.99-6.119 5.532L62.7 37.328m15.957-16.022l-1.121 1.872c-1.255 2.094-3.352 3.99-6.119 5.531l-12.283 6.843" stroke="#000" stroke-linejoin="bevel"/></svg>