<svg width="88" height="70" fill="none" xmlns="http://www.w3.org/2000/svg"><path fill-rule="evenodd" clip-rule="evenodd" d="M60.762 55.958c.212-.285.42-.574.623-.869 7.629-11.054 6.194-25.297-2.63-34.496a31.813 31.813 0 013.252-.2c6.813-.061 11.64 2.264 13.955 6.083.616 1.017.483 2.284-.103 3.32L61.241 55.64c-.159.107-.319.212-.48.317z" fill="#E5CABE"/><path fill-rule="evenodd" clip-rule="evenodd" d="M40.054 67.555c8.148-1.222 15.87-4.257 20.757-8.963 8.144-7.842 5.96-19.048-.051-25.831 4.468-.061 8.796.511 12.618 1.79 13.01 4.354 15.225 15.251 4.95 24.34-6.602 5.839-23.549 8.595-38.274 8.664z" fill="#E5CABE"/><path d="M6.105 35c-2.618 5.823.024 12.271 7.925 16.833 11.87 6.852 31.114 6.852 42.984 0 6.523-3.766 9.461-8.817 8.815-13.74" stroke="#000"/><path d="M65.337 39.136c1.9 5.55-.873 11.527-8.323 15.828-11.87 6.852-31.114 6.852-42.984 0-6.062-3.5-9.028-8.11-8.898-12.697" stroke="#000"/><path d="M6.105 40.702c-2.618 6.052.024 12.754 7.925 17.495 11.87 7.122 31.114 7.122 42.984 0 6.523-3.914 9.461-9.164 8.815-14.282" stroke="#000"/><path d="M65.337 45c1.9 5.768-.873 11.98-8.323 16.45-11.87 7.123-31.114 7.123-42.984 0-6.062-3.637-9.028-8.43-8.898-13.196" stroke="#000"/><path d="M5.708 32.874c-1.901 5.55.873 11.528 8.322 15.828 11.87 6.853 31.114 6.853 42.984 0 7.45-4.3 10.224-10.278 8.323-15.828" stroke="#000"/><path d="M56.824 45.173c-5.846 3.375-13.54 5.077-21.262 5.077-7.721 0-15.415-1.702-21.262-5.077-5.85-3.377-8.66-7.733-8.66-11.986 0-4.253 2.81-8.61 8.66-11.986 5.847-3.375 13.54-5.077 21.262-5.077 7.721 0 15.416 1.702 21.262 5.077 5.85 3.377 8.66 7.733 8.66 11.986 0 4.253-2.81 8.609-8.66 11.986z" fill="#FFE1D3" stroke="#000"/><path d="M62.91 16.699c.324.904.028 1.934-.669 2.736L45.883 38.262c-2.004 2.307-4.483 4.153-7.36 5.04-6.844 2.112-14.03 2.795-20.184 1.601-6.649-1.29-10.738-4.501-12.128-8.534-1.39-4.033-.147-9.082 4.295-14.195 4.44-5.11 11.179-9.238 18.499-11.76 7.32-2.524 15.171-3.424 21.817-2.135 6.586 1.278 10.66 4.442 12.088 8.42z" fill="#FFE1D3" stroke="#000"/><path d="M43.056 28.852c-1.052 1.208-1.692 3.55-2.2 5.326-4 2.373-9.193 3.54-13.329 2.732-5.708-1.116-7.238-5.575-3.417-9.96 3.82-4.385 11.546-7.035 17.254-5.92 3.12.61 4.992 2.22 5.424 4.27-1.068.445-2 1.564-3.732 3.552z" fill="#fff"/><path d="M63.522 17.053c-8.364 2.168-15.297 5.671-19.227 10.194-3.93 4.522-4.207 9.318-1.48 13.638m-22.1.401C9.58 39.291 7.025 31.176 15.006 23.16c7.982-8.016 23.478-12.896 34.613-10.9" stroke="#000"/></svg>