<svg width="117" height="62" fill="none" xmlns="http://www.w3.org/2000/svg"><path d="M90.362 16.774l25.233 15.042-13.131 1.193v-6.761L78.298 12.566l12.064 4.208z" fill="#A0D9BC"/><path d="M107.238 28.634l8.754 3.182-46.681 27.01-11.683-1.724 49.61-28.468zM57.733 5.584L81.711 19.42l-9.09-2.373-26.952-15.67 12.064 4.207z" fill="#A0D9BC"/><path d="M72.222 16.252l9.553 3.097-44.861 25.886-11.683-1.722 46.991-27.261z" fill="#A0D9BC"/><path fill="#B1F1D0" d="M43.352 2.985L65.145 15.56 23.282 39.716 1.489 27.14z"/><path d="M45.861 1.537L69.84 15.372 24.978 41.258 1 27.423 45.861 1.537zM8.959 26.99l17.685 10.204M11.346 25.398L29.03 35.603" stroke="#000" stroke-linejoin="bevel"/><path d="M69.84 17.759L24.977 43.645 1 29.809" stroke="#000" stroke-linejoin="bevel"/><path fill="#B1F1D0" d="M76.759 13.725l21.995 12.691-42.642 24.606L34.117 38.33z"/><path d="M78.489 12.726l23.977 13.836-44.861 25.886-23.978-13.836 44.861-25.886z" stroke="#000" stroke-linejoin="bevel"/><path d="M87.918 30.885l8.272-4.773-17.685-10.204-8.272 4.773M41.586 38.179L59.27 48.383M43.973 36.588l17.684 10.204" stroke="#000" stroke-linejoin="bevel"/><path d="M72.737 23.667l10.768 6.214-20.147 11.626-10.77-6.214 20.149-11.626z" fill="#fff" stroke="#000" stroke-linejoin="bevel"/><path d="M102.466 28.948L57.605 54.834 33.627 40.998" stroke="#000" stroke-linejoin="bevel"/><path d="M102.466 31.348L57.605 57.234 33.627 43.4m13.236-21.964c-3.574 2.174-9.368 2.174-12.942 0-3.574-2.175-3.574-5.7 0-7.874 3.574-2.175 9.368-2.175 12.942 0 3.574 2.174 3.574 5.7 0 7.874z" stroke="#000" stroke-linejoin="bevel"/></svg>