<svg width="75" height="85" fill="none" xmlns="http://www.w3.org/2000/svg"><path fill="#E5D795" d="M4.47 66.364l38.514-21.982 21.376 12.2-38.514 21.983z"/><path d="M1.013 60.28L27.29 45.283l21.376 12.2-26.277 14.998L8.22 65.55l-7.206-5.27z" fill="#E5D795"/><path d="M35.919 84.005l38.163-21.75-17.341-9.39a3.52 3.52 0 01-.142-.08c-.444-.269-2.865-1.83-2.865-4.005l.001-43.311c0-4.508-2.599-4.632-3.898-4.13l-38.612 21.75 1.347.444c2.514.355 3.442 3.401 3.591 4.88v38.115c0 2.17.553 3.934 1.158 5.215.807 1.712 2.368 2.873 4.006 3.82l14.591 8.442z" fill="#FFEFA6"/><path d="M16.163 28.413v38.115c0 2.17.553 3.934 1.157 5.215.808 1.712 2.369 2.873 4.007 3.82l14.591 8.442 38.164-21.75-17.341-9.39a3.448 3.448 0 01-.142-.08c-.445-.269-2.865-1.83-2.865-4.005V5.47m-42.06 61.166V28.52m-.899-5.296l38.613-21.75" stroke="#000" stroke-linejoin="bevel"/><path d="M16.164 28.363c0 1.753-1.407 2.464-3.143 1.587-1.736-.877-3.143-3.009-3.143-4.763s1.407-2.464 3.143-1.587c1.735.877 3.143 3.01 3.143 4.763z" stroke="#000" stroke-linejoin="bevel"/><path d="M7.184 64.626c0 1.753-1.407 2.464-3.143 1.587C2.306 65.336.9 63.203.898 61.45c0-1.754 1.407-2.465 3.143-1.588 1.736.877 3.143 3.01 3.143 4.764z" fill="#E5D795"/><path d="M14.368 27.569c0 .877-.603 1.232-1.347.794-.744-.439-1.347-1.505-1.347-2.382 0-.877.603-1.232 1.347-.794.744.439 1.347 1.505 1.347 2.382zM53.877 5.913c0-1.855-.469-3.553-1.795-4.439-.895-.597-1.796-.666-2.694 0" stroke="#000" stroke-linejoin="bevel"/><path d="M50.175 42.897l-9.398-12.706-6.057 15.104-3.77-2.152-9.4 16.094 28.625-16.34z" fill="#fff"/><path d="M50.175 42.897l-9.398-12.706-6.057 15.104-3.77-2.152-9.4 16.094" stroke="#000"/><ellipse rx="3.954" ry="3.92" transform="matrix(.86847 -.49575 -.00003 1 26.839 39.315)" fill="#fff"/><path d="M26.931 43.309c-1.896 1.083-3.434.208-3.434-1.954 0-2.161 1.538-4.791 3.434-5.874" stroke="#000"/></svg>