<svg width="105" height="68" fill="none" xmlns="http://www.w3.org/2000/svg"><path d="M54.009 49.623l30.4-6.18-21.85 6.18L43.713 67.09 13.825 49.723l40.184-.1z" fill="#E5D795"/><path fill="#E5D795" d="M75.03 14.77l29.889 17.367-20.167 11.718-29.888-17.367z"/><path d="M42.894 67.264L1 43.168l10.26-18.072 42.749 24.096-11.115 18.072z" fill="#fff"/><path d="M42.894 67.264L1 43.168l10.26-18.072 42.749 24.096-11.115 18.072z" stroke="#000" stroke-linejoin="bevel"/><path d="M43.74 19.072L14.68 24.58l39.27 22.03 28.273-5.507L43.74 19.072z" fill="#fff"/><path d="M84.787 43.168L42.893 19.072 53.153 1l42.749 24.096-11.115 18.072z" fill="#fff"/><path d="M84.787 43.168L42.893 19.072 53.153 1l42.749 24.096-11.115 18.072z" stroke="#000" stroke-linejoin="bevel"/><path d="M82.734 41.078l9.323-15.121L54.065 4.81 45.46 19.933m-2.565-.861l-31.634 6.024L54.01 49.192l30.78-6.024-41.895-24.096z" stroke="#000" stroke-linejoin="bevel"/><path d="M42.039 22.421l10.26 5.594-20.466 3.988-10.313-5.71 20.519-3.872z" fill="#FFEFA6" stroke="#000" stroke-linejoin="bevel"/><path d="M55.718 30.166l10.26 5.594-20.465 3.988-10.314-5.71 20.52-3.871zm-3.418-9.82l.69-.794a5.826 5.826 0 001.321-2.73c.197-1.037.672-2 1.372-2.786l.449-.503a8.248 8.248 0 001.01-1.41l.913-1.603m-3.192 11.547l.69-.794a5.825 5.825 0 001.322-2.73c.197-1.036.671-2 1.371-2.786l.45-.503a8.248 8.248 0 001.01-1.409l.912-1.604M79.66 36.697l.689-.794a5.824 5.824 0 001.322-2.73c.197-1.037.671-2 1.371-2.786l.449-.503a8.24 8.24 0 001.01-1.41l.913-1.603" stroke="#000" stroke-linejoin="bevel"/></svg>