<svg width="75" height="78" fill="none" xmlns="http://www.w3.org/2000/svg"><path fill="#FFE1D3" d="M5.833 37.143L54.878 9.146l-.001 34.871L5.832 72.014z"/><path d="M6.332 71.153l.001-36.269 51.63-29.472V41.68L6.332 71.153z" stroke="#000" stroke-linejoin="bevel"/><path d="M56.326 2.776L3.696 32.818l-.002 37.42" stroke="#000" stroke-linejoin="bevel"/><path d="M53.631 1L1.001 31.043 1 68.463" stroke="#000" stroke-linejoin="bevel"/><path d="M34.893 41.703l-27.56-7.278L57.18 5.97 34.893 41.703z" fill="#FFE1D3" stroke="#000" stroke-linejoin="bevel"/><path d="M22.102 46.72L6.022 71.691l51.999-29.855-8.98-2.664" stroke="#000" stroke-linejoin="bevel"/><path d="M59.264 41.699l15.368 2.22-52.876 30.178-15.368-2.219L59.264 41.7z" fill="#E5CABE"/><path d="M35.352 36.22l.38.583.382-1.013a9.964 9.964 0 011.077-2.1c.53-.772 1.124-1.341 1.774-1.71 1.818-1.028 3.23-.127 3.23 2.233 0 1.25-.432 2.567-1.254 4.171-.834 1.626-2.035 3.482-3.533 5.793h0c-.505.78-1.078 1.666-1.675 2.602-.597-.26-1.17-.497-1.675-.705h0c-1.498-.617-2.7-1.115-3.533-1.797-.823-.674-1.254-1.503-1.254-2.753 0-2.36 1.412-4.858 3.23-5.886.65-.368 1.243-.47 1.774-.299l.265-.546-.265.546c.515.166.867.559 1.077.882z" fill="#FFE1D3" stroke="#000"/><path d="M37.15 37.108l.38.583.38-1.013a9.959 9.959 0 011.078-2.101c.53-.77 1.124-1.34 1.774-1.709 1.818-1.028 3.23-.128 3.23 2.233 0 1.25-.432 2.567-1.254 4.171-.834 1.626-2.035 3.482-3.533 5.793h0c-.505.78-1.079 1.665-1.675 2.602-.597-.261-1.17-.497-1.675-.705h0c-1.498-.618-2.7-1.115-3.533-1.798-.823-.673-1.254-1.502-1.254-2.752 0-2.36 1.412-4.858 3.23-5.886.65-.368 1.243-.47 1.774-.3l.265-.545-.265.546c.515.166.866.559 1.077.881z" fill="#fff" stroke="#000"/></svg>