<svg width="87" height="86" fill="none" xmlns="http://www.w3.org/2000/svg"><path d="M71.97 49.368l14.49 2.594-52.925 30.876-14.49-2.594L71.97 49.368zM11.592 61.919v.837l.415.418 2.484 7.95-4.632-1.027L0 68.53l11.592-6.61z" fill="#D7C7ED"/><path d="M60.688 5.833L7.026 37.143.828 68.176l10.73-6.258" stroke="#000" stroke-linecap="round" stroke-linejoin="bevel"/><path d="M19.838 80.327l-3.406-1.009-5.702-20.746-4.647-16.437" stroke="#000" stroke-linecap="round" stroke-linejoin="bevel"/><path d="M10.318 35.936L60.352 6.743 71.906 47.61 21.873 76.804 10.318 35.935z" fill="#E5D4FC"/><path d="M7.462 36.868l53.661-31.31L73.516 49.39 19.854 80.7 7.463 36.868z" stroke="#000" stroke-linejoin="bevel"/><path d="M17.694 36.96c.3 1.21-.176 2.893-1.063 3.76-.886.867-1.848.59-2.148-.62-.3-1.209.176-2.892 1.063-3.76.886-.867 1.848-.59 2.148.62zm6.979-3.852c.3 1.21-.176 2.893-1.062 3.76-.887.867-1.848.59-2.148-.62-.3-1.209.175-2.892 1.062-3.76.887-.867 1.848-.59 2.148.62zm6.814-3.86c.3 1.21-.176 2.893-1.063 3.76-.886.867-1.848.59-2.148-.62-.3-1.209.176-2.892 1.062-3.76.887-.867 1.849-.59 2.149.62zm6.814-3.86c.3 1.21-.176 2.893-1.062 3.76-.887.867-1.848.59-2.148-.62-.3-1.209.175-2.892 1.062-3.76.886-.867 1.848-.59 2.148.62zm6.813-3.86c.3 1.21-.175 2.893-1.062 3.76-.886.867-1.848.59-2.148-.62-.3-1.209.176-2.892 1.062-3.76.887-.867 1.849-.59 2.148.62zm6.815-3.86c.3 1.21-.176 2.893-1.062 3.76-.887.867-1.848.59-2.148-.62-.3-1.209.175-2.892 1.062-3.76.886-.867 1.848-.59 2.148.62zm6.8-3.567c.3 1.21-.176 2.893-1.062 3.76-.887.867-1.849.59-2.148-.62-.3-1.209.175-2.892 1.062-3.76.886-.867 1.848-.59 2.148.62z" fill="#D7C7ED"/><path d="M10.915 35.317c-.611-1.225-.978-2.55-.978-3.761 0-2.775 1.927-3.9 4.306-2.512 2.378 1.387 4.306 4.762 4.306 7.537 0 2.164-1.172 3.325-2.816 3.073m1.807-8.521c-.612-1.224-.98-2.55-.98-3.76 0-2.776 1.928-3.9 4.306-2.513 2.379 1.388 4.307 4.762 4.307 7.537 0 2.164-1.172 3.325-2.816 3.073m1.806-8.52c-.611-1.225-.978-2.55-.978-3.762 0-2.775 1.927-3.9 4.306-2.512 2.378 1.388 4.306 4.762 4.306 7.537 0 2.165-1.172 3.325-2.817 3.073m1.808-8.52c-.612-1.225-.98-2.55-.98-3.761 0-2.775 1.928-3.9 4.307-2.512 2.378 1.387 4.306 4.762 4.306 7.537 0 2.164-1.172 3.324-2.816 3.072m2.635-7.683c-.612-1.225-.98-2.55-.98-3.761 0-2.775 1.928-3.9 4.307-2.512 2.378 1.387 4.306 4.762 4.306 7.537 0 2.164-1.172 3.324-2.816 3.072m1.807-8.52c-.612-1.224-.98-2.55-.98-3.76 0-2.776 1.928-3.9 4.307-2.513 2.378 1.387 4.306 4.762 4.306 7.537 0 2.164-1.172 3.325-2.816 3.073m1.808-8.521c-.612-1.224-.98-2.55-.98-3.76 0-2.776 1.928-3.9 4.307-2.513 2.378 1.388 4.306 4.762 4.306 7.537 0 2.164-1.172 3.325-2.816 3.073M19.3 51.44l-1.344-4.829 3.98-2.321 1.344 4.828-3.98 2.322zm7.453-4.184l-1.344-4.828 3.979-2.322 1.344 4.829-3.98 2.321zm7.452-4.183l-1.344-4.83 3.979-2.32 1.344 4.828-3.98 2.322zm7.452-4.184l-1.344-4.829 3.98-2.322 1.343 4.83-3.98 2.32zm7.453-4.184l-1.344-4.829 3.98-2.321 1.343 4.828-3.979 2.322zm7.452-4.184l-1.344-4.828 3.98-2.322L60.54 28.2l-3.979 2.322z" stroke="#000"/><path d="M19.873 54.81l4.875-2.845 1.584 5.69-4.876 2.844-1.583-5.689zm7.452-4.184l4.876-2.844 1.583 5.689-4.875 2.844-1.584-5.689zm7.452-4.183l4.876-2.845 1.583 5.689-4.875 2.845-1.584-5.69zm7.453-4.184l4.875-2.845 1.583 5.69-4.875 2.844-1.584-5.69zm7.453-4.184l4.875-2.845 1.583 5.69-4.875 2.844-1.583-5.689zm7.452-4.183l4.875-2.845 1.584 5.689-4.876 2.845-1.583-5.69z" fill="#fff"/></svg>