<svg width="99" height="56" fill="none" xmlns="http://www.w3.org/2000/svg"><path d="M45.904 55.39l52.634-31.18L60.995 1.468 50.32.367l33.126 18.341v7.337L33.757 55.39h12.147z" fill="#C7E0ED"/><path d="M50.468 2.935L1 31.107l32.979 18.781 49.468-28.172L50.468 2.935z" fill="#D4EEFC"/><path d="M82.437 18.782L33.979 46.379 2.01 28.172 50.468.575l31.969 18.207z" stroke="#000" stroke-linejoin="bevel"/><path d="M1 30.814l32.979 19.075 49.468-28.613" stroke="#000" stroke-linejoin="bevel"/><path d="M51.793 28.613l2.528-1.953a14.76 14.76 0 015.19-2.573l.664-.178a12.29 12.29 0 005.688-3.371 12.283 12.283 0 014.303-2.909l3.711-1.489M58.419 8.07l-1.776.531a2.997 2.997 0 00-1.866 1.622v0a2.997 2.997 0 01-2.496 1.74l-.35.026a2.65 2.65 0 00-2.208 1.538v0a2.65 2.65 0 01-2.207 1.538l-.555.042a2.65 2.65 0 00-2.207 1.538v0a2.65 2.65 0 01-2.207 1.538l-.599.045a3.67 3.67 0 00-2.502 1.265l-.903 1.05M56.21 6.603l-1.873.54A3.046 3.046 0 0052.43 8.76v0a3.046 3.046 0 01-2.526 1.73l-.47.034a2.702 2.702 0 00-2.242 1.534v0a2.702 2.702 0 01-2.242 1.535l-.67.05a2.702 2.702 0 00-2.241 1.534v0a2.702 2.702 0 01-2.242 1.534l-.676.05a3.866 3.866 0 00-2.602 1.281l-.921 1.032" stroke="#000" stroke-linejoin="bevel"/><path d="M1 33.504l32.979 18.585 49.468-27.878" stroke="#000" stroke-linejoin="bevel"/><path d="M1 35.949l32.979 19.075 49.468-28.613m-52.121 3.636c-1.026.59-2.404.9-3.808.9s-2.781-.31-3.808-.9c-1.03-.593-1.43-1.299-1.43-1.901 0-.603.4-1.309 1.43-1.901 1.027-.59 2.404-.9 3.808-.9s2.782.31 3.808.9c1.03.592 1.43 1.298 1.43 1.9 0 .603-.4 1.31-1.43 1.902z" stroke="#000" stroke-linejoin="bevel"/><path fill-rule="evenodd" clip-rule="evenodd" d="M42.451 30.142c-3.267-1.53-8.082-1.42-11.126.33-3.052 1.757-3.237 4.538-.553 6.419l1.306-.755c-1.968-1.462-1.785-3.573.547-4.915 2.326-1.338 5.98-1.447 8.52-.325l1.306-.755z" fill="#000"/></svg>