<svg width="94" height="64" fill="none" xmlns="http://www.w3.org/2000/svg"><path d="M76.231 40.438l17.345-3.27-40.56 23.516-11.44-.153 34.655-20.093z" fill="#C4C4C4"/><path d="M63.127 19.29l30.45 17.879-17.333 4.234-.469-8.469-13.117-6.704.469-6.94z" fill="#C4C4C4"/><path d="M65 26.818l10.95 6.234-34.285 19.879L7.38 33.052l2.342-1.47m-.702 4.29l-1.64 1.056 34.285 19.879 34.284-19.879-1.726-1.056M9.02 39.604L7.38 40.66l34.285 19.88 34.284-19.88-1.726-1.056" stroke="#000" stroke-linejoin="bevel"/><path d="M35.02 4.705L62.59 20.23c1.537 8.696-3.273 17.369-13.264 23.916l-7.66 5.02-31.533-18.283c14.384-5.21 23.557-14.121 24.639-23.935l.247-2.244z" fill="#F2F2F2"/><path d="M41.662 48.587L8.51 29.365C23.627 23.04 32.795 12.802 32.795 1.722V.827l29.449 15.46c3.292 10.575-2.406 21.536-15.656 29.383l-4.926 2.917z" stroke="#000" stroke-linejoin="bevel"/><path d="M54.226 18.349l-17.652-9.88c-.625 3.145-1.944 6.209-3.897 9.12" stroke="#000" stroke-linejoin="bevel"/></svg>