<svg width="107" height="98" viewBox="0 0 107 98" fill="none" xmlns="http://www.w3.org/2000/svg">
<g clip-path="url(#clip0)">
<path d="M86.9238 54.5548L103.418 57.4764L43.173 92.2564L26.6786 89.3348L86.9238 54.5548Z" fill="#D7C7ED"/>
<path d="M18.1954 68.6927L18.1954 69.6352L18.6667 70.1065L21.4943 79.0607L16.222 77.905L4.99991 76.139L18.1954 68.6927Z" fill="#D7C7ED"/>
<path d="M74.0805 5.51465L12.998 40.7833L5.94238 75.7424L18.157 68.6926" stroke="black" stroke-linecap="round" stroke-linejoin="bevel"/>
<path d="M27.5825 89.4288L23.7049 88.292L17.2147 64.9227L11.9248 46.4077" stroke="black" stroke-linecap="round" stroke-linejoin="bevel"/>
<path d="M16.7451 39.4243L73.6977 6.54031L86.8504 52.5754L29.8978 85.4594L16.7451 39.4243Z" fill="#E5D4FC"/>
<path d="M13.4941 40.4747L74.5767 5.20605L88.6831 54.5794L27.6006 89.848L13.4941 40.4747Z" stroke="black" stroke-linejoin="bevel"/>
<path d="M25.1409 40.578C25.4823 41.9403 24.941 43.8366 23.9319 44.8135C22.9228 45.7904 21.828 45.4779 21.4867 44.1155C21.1453 42.7531 21.6867 40.8568 22.6957 39.88C23.7048 38.9031 24.7996 39.2156 25.1409 40.578Z" fill="#D7C7ED"/>
<path d="M33.0853 36.2391C33.4266 37.6015 32.8853 39.4978 31.8762 40.4746C30.8671 41.4515 29.7724 41.139 29.431 39.7766C29.0897 38.4143 29.631 36.518 30.6401 35.5411C31.6492 34.5643 32.7439 34.8768 33.0853 36.2391Z" fill="#D7C7ED"/>
<path d="M40.8421 31.891C41.1835 33.2533 40.6421 35.1496 39.6331 36.1265C38.624 37.1033 37.5292 36.7908 37.1879 35.4285C36.8465 34.0661 37.3878 32.1698 38.3969 31.193C39.406 30.2161 40.5008 30.5286 40.8421 31.891Z" fill="#D7C7ED"/>
<path d="M48.598 27.5428C48.9393 28.9052 48.398 30.8015 47.3889 31.7783C46.3798 32.7552 45.2851 32.4427 44.9437 31.0803C44.6024 29.718 45.1437 27.8217 46.1528 26.8448C47.1619 25.868 48.2566 26.1805 48.598 27.5428Z" fill="#D7C7ED"/>
<path d="M56.3538 23.1947C56.6952 24.557 56.1539 26.4533 55.1448 27.4302C54.1357 28.4071 53.0409 28.0946 52.6996 26.7322C52.3582 25.3698 52.8995 23.4735 53.9086 22.4967C54.9177 21.5198 56.0125 21.8323 56.3538 23.1947Z" fill="#D7C7ED"/>
<path d="M64.1107 18.847C64.452 20.2094 63.9107 22.1057 62.9016 23.0825C61.8925 24.0594 60.7978 23.7469 60.4564 22.3845C60.1151 21.0222 60.6564 19.1259 61.6655 18.149C62.6746 17.1722 63.7693 17.4847 64.1107 18.847Z" fill="#D7C7ED"/>
<path d="M71.8509 14.829C72.1923 16.1913 71.6509 18.0876 70.6418 19.0645C69.6327 20.0413 68.538 19.7288 68.1966 18.3665C67.8553 17.0041 68.3966 15.1078 69.4057 14.131C70.4148 13.1541 71.5096 13.4666 71.8509 14.829Z" fill="#D7C7ED"/>
<path d="M17.4249 38.7271C16.7286 37.3478 16.3106 35.8549 16.3105 34.4906C16.3104 31.3647 18.5049 30.0977 21.212 31.6607C23.9192 33.2238 26.1138 37.025 26.1139 40.151C26.114 42.5887 24.7795 43.8959 22.9081 43.6121" stroke="black"/>
<path d="M24.9649 34.0142C24.2687 32.6349 23.8506 31.142 23.8506 29.7777C23.8505 26.6518 26.045 25.3848 28.7521 26.9479C31.4592 28.5109 33.6538 32.3121 33.6539 35.4381C33.654 37.8758 32.3195 39.183 30.4481 38.8992" stroke="black"/>
<path d="M32.5059 29.3018C31.8097 27.9225 31.3916 26.4296 31.3916 25.0653C31.3915 21.9394 33.586 20.6724 36.2931 22.2355C39.0002 23.7985 41.1948 27.5997 41.1949 30.7257C41.195 33.1634 39.8606 34.4706 37.9891 34.1868" stroke="black"/>
<path d="M40.0459 24.5889C39.3497 23.2096 38.9317 21.7167 38.9316 20.3524C38.9315 17.2265 41.126 15.9595 43.8331 17.5226C46.5403 19.0856 48.7349 22.8869 48.735 26.0128C48.7351 28.4505 47.4006 29.7577 45.5292 29.4739" stroke="black"/>
<path d="M48.5284 20.8189C47.8322 19.4396 47.4141 17.9467 47.4141 16.5824C47.414 13.4565 49.6084 12.1895 52.3156 13.7525C55.0227 15.3156 57.2173 19.1168 57.2174 22.2428C57.2175 24.6805 55.883 25.9877 54.0116 25.7039" stroke="black"/>
<path d="M56.0694 16.106C55.3732 14.7267 54.9551 13.2338 54.9551 11.8695C54.955 8.74356 57.1495 7.47658 59.8566 9.03965C62.5637 10.6027 64.7583 14.4039 64.7584 17.5299C64.7585 19.9676 63.424 21.2748 61.5526 20.991" stroke="black"/>
<path d="M63.6094 11.3936C62.9132 10.0143 62.4952 8.5214 62.4951 7.15713C62.495 4.03116 64.6895 2.76418 67.3966 4.32725C70.1037 5.89032 72.2984 9.69154 72.2985 12.8175C72.2985 15.2552 70.9641 16.5624 69.0927 16.2786" stroke="black"/>
<path d="M26.9239 56.9779L25.3635 51.4298L30.0141 48.7446L31.5745 54.2927L26.9239 56.9779Z" stroke="black"/>
<path d="M35.4073 52.265L33.8469 46.7169L38.4975 44.0317L40.0579 49.5799L35.4073 52.265Z" stroke="black"/>
<path d="M43.8897 47.5526L42.3294 42.0045L46.9799 39.3193L48.5403 44.8675L43.8897 47.5526Z" stroke="black"/>
<path d="M52.3731 42.8398L50.8128 37.2916L55.4633 34.6065L57.0237 40.1546L52.3731 42.8398Z" stroke="black"/>
<path d="M60.8556 38.1274L59.2952 32.5792L63.9457 29.8941L65.5061 35.4422L60.8556 38.1274Z" stroke="black"/>
<path d="M69.339 33.4145L67.7786 27.8664L72.4291 25.1812L73.9895 30.7293L69.339 33.4145Z" stroke="black"/>
<path d="M27.6211 60.6851L33.1708 57.4807L34.9731 63.8891L29.4234 67.0934L27.6211 60.6851Z" fill="white"/>
<path d="M36.1045 55.9727L41.6542 52.7683L43.4565 59.1767L37.9068 62.381L36.1045 55.9727Z" fill="white"/>
<path d="M44.5869 51.2598L50.1366 48.0554L51.939 54.4638L46.3892 57.6682L44.5869 51.2598Z" fill="white"/>
<path d="M53.0703 46.5469L58.62 43.3425L60.4224 49.7509L54.8726 52.9553L53.0703 46.5469Z" fill="white"/>
<path d="M61.5527 41.8345L67.1025 38.6301L68.9048 45.0385L63.3551 48.2429L61.5527 41.8345Z" fill="white"/>
<path d="M70.0361 37.1216L75.5859 33.9172L77.3882 40.3256L71.8385 43.53L70.0361 37.1216Z" fill="white"/>
</g>
<defs>
<clipPath id="clip0">
<rect width="107" height="98" fill="white"/>
</clipPath>
</defs>
</svg>
