<svg width="119" height="98" viewBox="0 0 119 98" fill="none" xmlns="http://www.w3.org/2000/svg">
<path d="M55.4112 79.947L114.5 44.8243L72.3527 19.2054L60.3697 17.9658L97.5584 38.6262V46.8904L41.7754 79.947H55.4112Z" fill="#C7E0ED"/>
<path d="M60.5351 20.8584L5 52.5927L42.0234 73.749L97.5585 42.0146L60.5351 20.8584Z" fill="#D4EEFC"/>
<path d="M60.5351 18.1286L96.5507 38.709L42.0234 69.8674L6.00778 49.2871L60.5351 18.1286Z" stroke="black" stroke-linejoin="bevel"/>
<path d="M5 52.262L42.0234 73.7487L97.5585 41.5186" stroke="black" stroke-linejoin="bevel"/>
<path d="M62.0225 49.7829L64.86 47.5833C66.5912 46.2413 68.5717 45.2563 70.6864 44.6855L71.4324 44.4841C73.8684 43.8266 76.0773 42.5132 77.8184 40.687C79.1763 39.2626 80.8235 38.1455 82.6491 37.4107L86.8149 35.7339" stroke="black" stroke-linejoin="bevel"/>
<path d="M69.4607 26.6431L67.4702 27.24C66.5405 27.5189 65.7761 28.1849 65.3727 29.0677V29.0677C64.8629 30.1833 63.7873 30.9339 62.5643 31.0275L62.1815 31.0568C61.1003 31.1396 60.1494 31.8032 59.6986 32.7895V32.7895C59.2479 33.7758 58.297 34.4394 57.2157 34.5222L56.6032 34.5691C55.522 34.6519 54.5711 35.3155 54.1203 36.3018V36.3018C53.6696 37.2881 52.7187 37.9517 51.6374 38.0345L50.971 38.0855C49.8835 38.1688 48.8735 38.6805 48.1633 39.5083L47.1475 40.6921" stroke="black" stroke-linejoin="bevel"/>
<path d="M66.9814 24.9902L64.883 25.5971C63.9402 25.8698 63.1596 26.5338 62.7393 27.4207V27.4207C62.2114 28.5347 61.1256 29.279 59.8962 29.3698L59.3795 29.4079C58.2891 29.4884 57.3261 30.1487 56.8578 31.1367V31.1367C56.3896 32.1247 55.4266 32.785 54.3361 32.8655L53.5946 32.9202C52.5042 33.0007 51.5412 33.6609 51.0729 34.649V34.649C50.6047 35.637 49.6416 36.2972 48.5512 36.3777L47.7976 36.4334C46.674 36.5163 45.6267 37.0334 44.8777 37.8751L43.8418 39.0393" stroke="black" stroke-linejoin="bevel"/>
<path d="M5 55.2921L42.0234 76.228L97.5585 44.8242" stroke="black" stroke-linejoin="bevel"/>
<path d="M5 58.0471L42.0234 79.5339L97.5585 47.3037" stroke="black" stroke-linejoin="bevel"/>
<path d="M39.0757 51.4539C37.9118 52.1258 36.3548 52.4761 34.7707 52.4761C33.1867 52.4761 31.6297 52.1258 30.4658 51.4539C29.2991 50.7803 28.8291 49.9674 28.8291 49.2573C28.8291 48.5472 29.2991 47.7343 30.4658 47.0608C31.6297 46.3889 33.1867 46.0386 34.7707 46.0386C36.3548 46.0386 37.9118 46.3889 39.0757 47.0608C40.2424 47.7343 40.7124 48.5472 40.7124 49.2573C40.7124 49.9674 40.2424 50.7803 39.0757 51.4539Z" stroke="black" stroke-linejoin="bevel"/>
<path fill-rule="evenodd" clip-rule="evenodd" d="M51.5354 51.5051C47.8676 49.7814 42.4616 49.9058 39.0447 51.8783C35.618 53.8566 35.4111 56.9898 38.4241 59.1075L39.7286 58.3511C37.4312 56.6521 37.6362 54.1914 40.3438 52.6283C43.0434 51.0698 47.2888 50.9475 50.231 52.2615L51.5354 51.5051Z" fill="black"/>
</svg>
