<svg width="86" height="86" viewBox="0 0 86 86" fill="none" xmlns="http://www.w3.org/2000/svg">
<path d="M44.3021 55.4612L69.1364 50.4457L51.2864 55.4612L35.8916 69.6382L11.4759 55.5428L44.3021 55.4612Z" fill="#E6D795"/>
<rect width="28.1922" height="19.022" transform="matrix(0.866041 0.499972 -0.866041 0.499972 61.4746 27.1748)" fill="#E6D795"/>
<path d="M35.2231 69.7793L1 50.2232L9.38118 35.5562L44.3027 55.1122L35.2231 69.7793Z" fill="white"/>
<path d="M35.2231 69.7793L1 50.2232L9.38118 35.5562L44.3027 55.1122L35.2231 69.7793Z" stroke="black" stroke-width="1.5" stroke-linejoin="bevel"/>
<path d="M35.9143 30.667L12.1758 35.137L44.2549 53.0168L67.3519 48.5468L35.9143 30.667Z" fill="white"/>
<path d="M69.4458 50.2231L35.2227 30.6671L43.6038 16L78.5254 35.5561L69.4458 50.2231Z" fill="white"/>
<path d="M69.4458 50.2231L35.2227 30.6671L43.6038 16L78.5254 35.5561L69.4458 50.2231Z" stroke="black" stroke-width="1.5" stroke-linejoin="bevel"/>
<path d="M67.7677 48.5269L75.3829 36.2545L44.3477 19.093L37.3184 31.3655" stroke="black" stroke-width="1.5" stroke-linejoin="bevel"/>
<path d="M35.2228 30.667L9.38086 35.556L44.3024 55.1121L69.446 50.2231L35.2228 30.667Z" stroke="black" stroke-width="1.5" stroke-linejoin="bevel"/>
<path d="M34.5238 33.3853L42.9052 37.9249L26.1868 41.1614L17.7617 36.5279L34.5238 33.3853Z" fill="#FFEFA6" stroke="black" stroke-width="1.5" stroke-linejoin="bevel"/>
<path d="M45.6996 39.6711L54.081 44.2108L37.3625 47.4473L28.9375 42.8138L45.6996 39.6711Z" stroke="black" stroke-width="1.5" stroke-linejoin="bevel"/>
<path d="M42.9062 31.7011L43.4694 31.0564C44.0194 30.4268 44.3921 29.6623 44.5493 28.8412C44.7105 27.9997 45.0979 27.218 45.67 26.5801L46.0364 26.1714C46.3512 25.8204 46.628 25.4371 46.8622 25.028L47.6074 23.7261" stroke="black" stroke-width="1.5" stroke-linejoin="bevel"/>
<path d="M45.002 33.098L45.5651 32.4533C46.1151 31.8237 46.4878 31.0593 46.645 30.2382C46.8062 29.3967 47.1936 28.6149 47.7657 27.977L48.1321 27.5684C48.4469 27.2174 48.7237 26.8341 48.9579 26.4249L49.7031 25.123" stroke="black" stroke-width="1.5" stroke-linejoin="bevel"/>
<path d="M65.2559 44.9713L65.819 44.3266C66.369 43.697 66.7417 42.9325 66.8989 42.1115C67.0601 41.27 67.4475 40.4882 68.0196 39.8503L68.3861 39.4417C68.7008 39.0907 68.9776 38.7074 69.2118 38.2982L69.957 36.9963" stroke="black" stroke-width="1.5" stroke-linejoin="bevel"/>
</svg>
