<svg width="105" height="68" viewBox="0 0 105 68" fill="none" xmlns="http://www.w3.org/2000/svg">
<path d="M54.009 49.6225L84.4099 43.4426L62.5589 49.6225L43.7133 67.0906L13.8249 49.723L54.009 49.6225Z" fill="#E5D795"/>
<rect width="34.568" height="23.3239" transform="matrix(0.864625 0.502419 -0.864625 0.502419 75.0303 14.7692)" fill="#E5D795"/>
<path d="M42.8942 67.2642L1 43.1681L11.2598 25.0961L54.009 49.1922L42.8942 67.2642Z" fill="white"/>
<path d="M42.8942 67.2642L1 43.1681L11.2598 25.0961L54.009 49.1922L42.8942 67.2642Z" stroke="black" stroke-linejoin="bevel"/>
<path d="M43.7392 19.072L14.6797 24.5797L53.9493 46.6104L82.2234 41.1027L43.7392 19.072Z" fill="white"/>
<path d="M84.7868 43.1682L42.8926 19.0721L53.1524 1L95.9016 25.0961L84.7868 43.1682Z" fill="white"/>
<path d="M84.7868 43.1682L42.8926 19.0721L53.1524 1L95.9016 25.0961L84.7868 43.1682Z" stroke="black" stroke-linejoin="bevel"/>
<path d="M82.7345 41.0781L92.0566 25.9566L54.065 4.81104L45.46 19.9326" stroke="black" stroke-linejoin="bevel"/>
<path d="M42.8951 19.072L11.2607 25.096L54.0099 49.1921L84.7893 43.1681L42.8951 19.072Z" stroke="black" stroke-linejoin="bevel"/>
<path d="M42.0388 22.4213L52.2989 28.0148L31.833 32.0026L21.5195 26.2935L42.0388 22.4213Z" fill="#FFEFA6" stroke="black" stroke-linejoin="bevel"/>
<path d="M55.7185 30.1665L65.9786 35.76L45.5127 39.7479L35.1992 34.0388L55.7185 30.1665Z" stroke="black" stroke-linejoin="bevel"/>
<path d="M52.2998 20.346L52.9892 19.5517C53.6624 18.7759 54.1187 17.834 54.3112 16.8223C54.5085 15.7854 54.9827 14.8222 55.683 14.0362L56.1316 13.5327C56.5169 13.1002 56.8558 12.6279 57.1425 12.1238L58.0547 10.5197" stroke="black" stroke-linejoin="bevel"/>
<path d="M54.8633 22.0672L55.5527 21.2729C56.2259 20.4971 56.6822 19.5552 56.8746 18.5435C57.0719 17.5066 57.5462 16.5434 58.2465 15.7574L58.6951 15.2539C59.0804 14.8214 59.4192 14.3491 59.7059 13.845L60.6181 12.2408" stroke="black" stroke-linejoin="bevel"/>
<path d="M79.6592 36.697L80.3486 35.9026C81.0218 35.1269 81.4781 34.1849 81.6705 33.1732C81.8678 32.1363 82.3421 31.1732 83.0424 30.3872L83.491 29.8836C83.8763 29.4512 84.2151 28.9789 84.5018 28.4747L85.414 26.8706" stroke="black" stroke-linejoin="bevel"/>
</svg>
