<svg width="94" height="64" viewBox="0 0 94 64" fill="none" xmlns="http://www.w3.org/2000/svg">
<path d="M76.231 40.4375L93.5764 37.1686L53.0169 60.6839L41.5762 60.5306L76.231 40.4375Z" fill="#C4C4C4"/>
<path d="M63.127 19.29L93.5769 37.1685L76.2436 41.4029L75.7752 32.9341L62.6583 26.2297L63.127 19.29Z" fill="#C4C4C4"/>
<path d="M65.0006 26.8179L75.9494 33.0522L41.6647 52.9307L7.37993 33.0522L9.72222 31.5817M9.01953 35.8723L7.37988 36.9285L41.6646 56.807L75.9493 36.9285L74.2227 35.8724M9.01953 39.604L7.37988 40.6603L41.6646 60.5388L75.9493 40.6603L74.2227 39.6041" stroke="black" stroke-linejoin="bevel"/>
<path d="M35.0194 4.70468L62.5907 20.2308C64.127 28.9273 59.3169 37.5998 49.3258 44.1469L41.6654 49.1668L10.1327 30.8839C24.5174 25.6734 33.69 16.7629 34.772 6.94878L35.0194 4.70468Z" fill="#F2F2F2"/>
<path d="M41.6619 48.5873L8.50989 29.3655C23.6267 23.0386 32.7954 12.8007 32.7954 1.72149L32.7954 0.827197L62.2436 16.2867C65.5358 26.8615 59.8379 37.823 46.5883 45.6697L41.6619 48.5873Z" stroke="black" stroke-linejoin="bevel"/>
<path d="M54.2259 18.349L36.5738 8.46875C35.9486 11.6144 34.6302 14.6777 32.6768 17.5893" stroke="black" stroke-linejoin="bevel"/>
</svg>
