<svg width="88" height="70" viewBox="0 0 88 70" fill="none" xmlns="http://www.w3.org/2000/svg">
<path fill-rule="evenodd" clip-rule="evenodd" d="M60.7618 55.9583C60.9742 55.6735 61.1821 55.3838 61.3852 55.0894C69.0136 44.0345 67.5792 29.7916 58.7558 20.5928C59.8528 20.47 60.9384 20.4021 62.0066 20.3925C68.8196 20.3316 73.647 22.6575 75.9617 26.4756C76.5784 27.4927 76.4447 28.7601 75.8591 29.7955L61.2413 55.6414C61.0821 55.7479 60.9223 55.8535 60.7618 55.9583Z" fill="#E5CABE"/>
<path fill-rule="evenodd" clip-rule="evenodd" d="M40.0542 67.5553C48.2024 66.3327 55.9238 63.2982 60.8114 58.5916C68.955 50.7497 66.7718 39.5443 60.7595 32.7605C65.2276 32.7 69.5561 33.272 73.3782 34.5512C86.3874 38.9051 88.6033 49.8024 78.3275 58.8911C71.7261 64.73 54.779 67.4856 40.0542 67.5553Z" fill="#E5CABE"/>
<path d="M6.10535 35.0002C3.48721 40.8233 6.12883 47.2714 14.0302 51.8329C25.8999 58.6854 45.1445 58.6854 57.0142 51.8329C63.5368 48.0674 66.4752 43.0161 65.8291 38.0922" stroke="black"/>
<path d="M65.3366 39.1359C67.2378 44.6856 64.4637 50.6633 57.0142 54.9639C45.1445 61.8164 25.8999 61.8164 14.0302 54.9639C7.96761 51.4639 5.00156 46.8533 5.13205 42.2665" stroke="black"/>
<path d="M6.10535 40.7015C3.48721 46.7537 6.12883 53.4555 14.0302 58.1966C25.8999 65.3186 45.1445 65.3186 57.0142 58.1966C63.5368 54.2828 66.4752 49.0328 65.8291 43.9151" stroke="black"/>
<path d="M65.3366 44.9999C67.2378 50.7679 64.4637 56.9808 57.0142 61.4507C45.1445 68.5728 25.8999 68.5728 14.0302 61.4507C7.96761 57.813 5.00156 53.0209 5.13205 48.2537" stroke="black"/>
<path d="M5.70779 32.8743C3.80654 38.424 6.58067 44.4017 14.0302 48.7023C25.8999 55.5548 45.1445 55.5548 57.0142 48.7023C64.4637 44.4017 67.2378 38.424 65.3366 32.8743" stroke="black"/>
<path d="M56.8241 45.1728C50.9776 48.548 43.2834 50.2499 35.5621 50.2499C27.8408 50.2499 20.1466 48.548 14.3002 45.1728C8.4509 41.7959 5.63965 37.44 5.63965 33.1868C5.63965 28.9336 8.4509 24.5776 14.3002 21.2008C20.1466 17.8256 27.8408 16.1237 35.5621 16.1237C43.2834 16.1237 50.9776 17.8256 56.8241 21.2008C62.6734 24.5776 65.4846 28.9336 65.4846 33.1868C65.4846 37.44 62.6734 41.7959 56.8241 45.1728Z" fill="#FFE1D3" stroke="black"/>
<path d="M62.9099 16.699C63.234 17.6028 62.9381 18.6328 62.241 19.4352L45.8832 38.2624C43.8789 40.5693 41.3996 42.4152 38.5235 43.3025C31.679 45.4141 24.4923 46.0971 18.3395 44.9032C11.6904 43.613 7.60133 40.4016 6.2114 36.3687C4.82147 32.3358 6.06367 27.2871 10.5059 22.1742C14.946 17.0638 21.6847 12.9361 29.005 10.4131C36.3254 7.89019 44.1763 6.98961 50.8221 8.27924C57.4083 9.55728 61.4829 12.7206 62.9099 16.699Z" fill="#FFE1D3" stroke="black"/>
<path d="M43.0564 28.8518C42.0035 30.0602 41.3635 32.4028 40.8568 34.1784C36.856 36.5507 31.6626 37.7188 27.5275 36.9104C21.8194 35.7944 20.2894 31.335 24.1101 26.9498C27.9309 22.5647 35.6555 19.9145 41.3635 21.0304C44.4845 21.6405 46.3564 23.2502 46.7876 25.3008C45.7196 25.7447 44.7881 26.8643 43.0564 28.8518Z" fill="white"/>
<path d="M63.522 17.0533C55.1583 19.2207 48.2247 22.7244 44.2951 27.2469C40.3655 31.7694 40.0881 36.5649 42.8149 40.8848" stroke="black"/>
<path d="M20.7148 41.2864C9.58039 39.2912 7.0245 31.1758 15.0061 23.1601C22.9877 15.1444 38.4844 10.2639 49.6188 12.2591" stroke="black"/>
</svg>
