<svg width="125" height="73" viewBox="0 0 125 73" fill="none" xmlns="http://www.w3.org/2000/svg">
<path d="M77.4557 1.77559L120.24 23.0774L108.237 29.978L77.4557 1.77559Z" fill="#C7E0ED"/>
<path d="M102.609 37.7485C99.796 40.9807 94.0962 42.9444 89.8785 42.1344C85.6609 41.3245 95.4749 40.1851 98.2883 36.9528C101.102 33.7206 95.8491 29.6195 100.067 30.4295C104.284 31.2394 105.423 34.5162 102.609 37.7485Z" fill="#C7E0ED"/>
<path d="M64.8061 22.6712L11.9323 53.2655L43.8978 71.7797L96.7716 41.1854L99.69 38.2986C101.571 36.1573 102.49 33.3916 102.714 32.2763L103.05 31.6072C102.243 28.663 103.834 25.9196 104.73 24.9159C107.149 20.901 109.769 20.5665 110.777 20.901L81.6508 3.72216C79.5006 2.38389 78.0672 2.27238 77.6192 2.38391C75.7378 2.38391 73.6996 4.61438 72.9157 5.72961C70.8999 7.73702 70.5639 13.7592 70.5639 14.0938C70.2951 17.3056 66.6133 21.1503 64.8061 22.6712Z" fill="#D4EEFC"/>
<ellipse rx="7.77632" ry="7.75897" transform="matrix(0.982056 0.188588 -0.656547 0.754286 112.028 27.7375)" fill="#C7E0ED"/>
<path d="M63.0233 21.7834L8.41895 53.1754L42.1674 72.5774L96.7718 41.1853" stroke="black" stroke-linejoin="bevel"/>
<path d="M77.5163 1.49611L110.257 20.5635" stroke="black" stroke-linejoin="bevel"/>
<path d="M102.775 30.6031C102.775 34.4831 100.04 39.2011 96.6658 41.1412" stroke="black" stroke-linejoin="bevel"/>
<path d="M69.117 10.5292C69.1169 14.7892 66.1363 19.9564 62.4597 22.0704" stroke="black" stroke-linejoin="bevel"/>
<path d="M102.714 30.7697C102.714 27.2593 105.189 22.9906 108.241 21.2353" stroke="black" stroke-linejoin="bevel"/>
<path d="M69.117 10.7443C69.1171 7.54388 71.3734 3.65218 74.1566 2.05191C75.5508 1.25022 76.8128 1.17569 77.7252 1.70333" stroke="black" stroke-linejoin="bevel"/>
<ellipse rx="5.81301" ry="5.79479" transform="matrix(0.866912 -0.498461 -3.20243e-05 1 107.753 27.2516)" stroke="black" stroke-linejoin="bevel"/>
<ellipse rx="1.62348" ry="1.61839" transform="matrix(0.866912 -0.498461 -3.20242e-05 1 107.753 27.2515)" stroke="black" stroke-linejoin="bevel"/>
<rect width="24.6697" height="11.9282" transform="matrix(0.866944 -0.498406 0.866944 0.498406 21.7383 50.469)" fill="white" stroke="black" stroke-linejoin="bevel"/>
<path d="M57.3892 47.051L36.002 59.3466" stroke="black" stroke-linejoin="bevel"/>
<path d="M60.064 49.7144L38.6768 62.0099" stroke="black" stroke-linejoin="bevel"/>
<path d="M66.3118 39.816L78.5947 32.9729C81.3621 31.4311 83.4584 29.5361 84.7136 27.4415L85.8352 25.5701L96.1762 31.5152L95.0547 33.3866C93.7994 35.4812 91.7031 37.3762 88.9358 38.918L76.6529 45.7611L66.3118 39.816Z" fill="white" stroke="black" stroke-linejoin="bevel"/>
<path d="M82.2238 23.0818L81.1023 24.9533C79.847 27.0478 77.7507 28.9429 74.9834 30.4846L62.7005 37.3278" stroke="black" stroke-linejoin="bevel"/>
<path d="M78.6574 21.3063L77.5359 23.1777C76.2806 25.2723 74.1843 27.1673 71.417 28.7091L59.1341 35.5522" stroke="black" stroke-linejoin="bevel"/>
</svg>
