<svg width="87" height="86" viewBox="0 0 87 86" fill="none" xmlns="http://www.w3.org/2000/svg">
<path d="M71.9699 49.3679L86.4603 51.9616L33.5347 82.8377L19.0442 80.244L71.9699 49.3679Z" fill="#D7C7ED"/>
<path d="M11.5924 61.9189L11.5924 62.7556L12.0065 63.174L14.4905 71.1231L9.85877 70.0971L9.4728e-05 68.5294L11.5924 61.9189Z" fill="#D7C7ED"/>
<path d="M60.6878 5.83252L7.02648 37.1424L0.828125 68.1775L11.5587 61.9191" stroke="black" stroke-linecap="round" stroke-linejoin="bevel"/>
<path d="M19.8384 80.3274L16.4319 79.3183L10.7302 58.572L6.08301 42.1353" stroke="black" stroke-linecap="round" stroke-linejoin="bevel"/>
<path d="M10.3184 35.9357L60.3515 6.74273L71.9062 47.6106L21.873 76.8035L10.3184 35.9357Z" fill="#E5D4FC"/>
<path d="M7.46191 36.8682L61.1232 5.55835L73.5158 49.3898L19.8545 80.6997L7.46191 36.8682Z" stroke="black" stroke-linejoin="bevel"/>
<path d="M17.6936 36.9602C17.9935 38.1696 17.5179 39.8531 16.6314 40.7203C15.7449 41.5875 14.7832 41.3101 14.4833 40.1006C14.1834 38.8912 14.659 37.2078 15.5455 36.3406C16.432 35.4733 17.3937 35.7508 17.6936 36.9602Z" fill="#D7C7ED"/>
<path d="M24.6731 33.108C24.973 34.3175 24.4974 36.0009 23.6109 36.8681C22.7244 37.7353 21.7627 37.4579 21.4628 36.2485C21.1629 35.039 21.6385 33.3556 22.525 32.4884C23.4115 31.6212 24.3732 31.8986 24.6731 33.108Z" fill="#D7C7ED"/>
<path d="M31.4866 29.248C31.7864 30.4575 31.3109 32.1409 30.4244 33.0081C29.5379 33.8753 28.5762 33.5979 28.2763 32.3885C27.9764 31.1791 28.452 29.4956 29.3384 28.6284C30.2249 27.7612 31.1867 28.0386 31.4866 29.248Z" fill="#D7C7ED"/>
<path d="M38.301 25.3882C38.6009 26.5976 38.1253 28.2811 37.2389 29.1483C36.3524 30.0155 35.3906 29.7381 35.0907 28.5286C34.7909 27.3192 35.2664 25.6357 36.1529 24.7685C37.0394 23.9013 38.0011 24.1787 38.301 25.3882Z" fill="#D7C7ED"/>
<path d="M45.1145 21.5281C45.4144 22.7375 44.9388 24.421 44.0523 25.2882C43.1658 26.1554 42.2041 25.878 41.9042 24.6685C41.6043 23.4591 42.0799 21.7756 42.9664 20.9084C43.8529 20.0412 44.8146 20.3186 45.1145 21.5281Z" fill="#D7C7ED"/>
<path d="M51.9289 17.6681C52.2288 18.8775 51.7533 20.561 50.8668 21.4282C49.9803 22.2954 49.0185 22.018 48.7187 20.8085C48.4188 19.5991 48.8943 17.9156 49.7808 17.0484C50.6673 16.1812 51.6291 16.4587 51.9289 17.6681Z" fill="#D7C7ED"/>
<path d="M58.7287 14.1011C59.0286 15.3105 58.5531 16.994 57.6666 17.8612C56.7801 18.7284 55.8183 18.451 55.5185 17.2415C55.2186 16.0321 55.6941 14.3486 56.5806 13.4814C57.4671 12.6142 58.4289 12.8916 58.7287 14.1011Z" fill="#D7C7ED"/>
<path d="M10.9154 35.3169C10.3038 34.0924 9.93656 32.7671 9.93652 31.556C9.93644 28.7809 11.8643 27.6561 14.2425 29.0437C16.6207 30.4313 18.5487 33.8059 18.5488 36.581C18.5489 38.7451 17.3765 39.9055 15.7325 39.6536" stroke="black"/>
<path d="M17.5395 31.1332C16.9278 29.9087 16.5606 28.5834 16.5605 27.3722C16.5605 24.5972 18.4883 23.4724 20.8665 24.86C23.2447 26.2476 25.1727 29.6222 25.1728 32.3973C25.1729 34.5613 24.0006 35.7218 22.3565 35.4699" stroke="black"/>
<path d="M24.1635 26.9494C23.5519 25.7249 23.1846 24.3996 23.1846 23.1884C23.1845 20.4133 25.1123 19.2885 27.4906 20.6762C29.8688 22.0638 31.7968 25.4383 31.7968 28.2134C31.7969 30.3775 30.6246 31.538 28.9805 31.2861" stroke="black"/>
<path d="M30.7875 22.7658C30.1759 21.5413 29.8086 20.216 29.8086 19.0048C29.8085 16.2297 31.7364 15.105 34.1146 16.4926C36.4928 17.8802 38.4208 21.2548 38.4209 24.0298C38.4209 26.1939 37.2486 27.3544 35.6046 27.1025" stroke="black"/>
<path d="M38.2397 19.4187C37.628 18.1942 37.2608 16.8689 37.2607 15.6578C37.2607 12.8827 39.1885 11.7579 41.5667 13.1455C43.9449 14.5332 45.8729 17.9077 45.873 20.6828C45.8731 22.8469 44.7008 24.0073 43.0567 23.7554" stroke="black"/>
<path d="M44.8637 15.235C44.2521 14.0105 43.8848 12.6852 43.8848 11.4741C43.8847 8.69896 45.8125 7.57419 48.1908 8.96182C50.569 10.3494 52.497 13.724 52.4971 16.4991C52.4971 18.6631 51.3248 19.8236 49.6807 19.5717" stroke="black"/>
<path d="M51.4887 11.0513C50.8771 9.8268 50.5098 8.50148 50.5098 7.29034C50.5097 4.51524 52.4375 3.39048 54.8157 4.7781C57.194 6.16572 59.122 9.54027 59.122 12.3154C59.1221 14.4794 57.9498 15.6399 56.3057 15.388" stroke="black"/>
<path d="M19.3005 51.4401L17.9565 46.6113L21.9357 44.2896L23.2796 49.1184L19.3005 51.4401Z" stroke="black"/>
<path d="M26.7526 47.2564L25.4087 42.4276L29.3878 40.1058L30.7318 44.9346L26.7526 47.2564Z" stroke="black"/>
<path d="M34.2048 43.0727L32.8608 38.2439L36.84 35.9221L38.1839 40.7509L34.2048 43.0727Z" stroke="black"/>
<path d="M41.6569 38.8889L40.313 34.0601L44.2921 31.7384L45.6361 36.5672L41.6569 38.8889Z" stroke="black"/>
<path d="M49.11 34.7052L47.7661 29.8764L51.7453 27.5547L53.0892 32.3835L49.11 34.7052Z" stroke="black"/>
<path d="M56.5622 30.5215L55.2183 25.6927L59.1974 23.371L60.5413 28.1998L56.5622 30.5215Z" stroke="black"/>
<path d="M19.873 54.8101L24.7485 51.9654L26.3319 57.6544L21.4564 60.4991L19.873 54.8101Z" fill="white"/>
<path d="M27.3252 50.6263L32.2007 47.7816L33.784 53.4707L28.9085 56.3154L27.3252 50.6263Z" fill="white"/>
<path d="M34.7773 46.4426L39.6528 43.5979L41.2362 49.287L36.3607 52.1317L34.7773 46.4426Z" fill="white"/>
<path d="M42.2295 42.2589L47.105 39.4142L48.6883 45.1033L43.8128 47.948L42.2295 42.2589Z" fill="white"/>
<path d="M49.6826 38.0752L54.5581 35.2305L56.1414 40.9196L51.266 43.7643L49.6826 38.0752Z" fill="white"/>
<path d="M57.1348 33.8915L62.0102 31.0468L63.5936 36.7359L58.7181 39.5806L57.1348 33.8915Z" fill="white"/>
</svg>
