<svg width="117" height="62" viewBox="0 0 117 62" fill="none" xmlns="http://www.w3.org/2000/svg">
<path d="M90.3621 16.7736L115.595 31.8156L102.464 33.0087L102.464 26.2479L78.2981 12.5665L90.3621 16.7736Z" fill="#A0D9BC"/>
<path d="M107.238 28.6341L115.992 31.8157L69.3109 58.8251L57.6284 57.1024L107.238 28.6341Z" fill="#A0D9BC"/>
<path d="M57.7331 5.5841L81.7108 19.4197L72.6206 17.0469L45.6692 1.37706L57.7331 5.5841Z" fill="#A0D9BC"/>
<path d="M72.2223 16.2516L81.7753 19.3494L36.9138 45.2354L25.2313 43.5126L72.2223 16.2516Z" fill="#A0D9BC"/>
<rect width="25.1613" height="48.3322" transform="matrix(0.86615 0.499785 -0.86615 0.499785 43.3516 2.98499)" fill="#B1F1D0"/>
<path d="M45.8615 1.53674L69.8393 15.3724L24.9777 41.2583L1 27.4227L45.8615 1.53674Z" stroke="black" stroke-linejoin="bevel"/>
<path d="M8.95898 26.9893L26.6436 37.1936" stroke="black" stroke-linejoin="bevel"/>
<path d="M11.3457 25.3984L29.0303 35.6028" stroke="black" stroke-linejoin="bevel"/>
<path d="M69.8393 17.7585L24.9777 43.6445L1 29.8089" stroke="black" stroke-linejoin="bevel"/>
<rect width="25.3938" height="49.2319" transform="matrix(0.86615 0.499785 -0.86615 0.499785 76.7588 13.7247)" fill="#B1F1D0"/>
<path d="M78.4885 12.7262L102.466 26.5618L57.6047 52.4478L33.627 38.6122L78.4885 12.7262Z" stroke="black" stroke-linejoin="bevel"/>
<path d="M87.918 30.8852L96.1898 26.1122L78.5052 15.9078L70.2334 20.6808" stroke="black" stroke-linejoin="bevel"/>
<path d="M41.5859 38.1787L59.2705 48.3831" stroke="black" stroke-linejoin="bevel"/>
<path d="M43.9727 36.5879L61.6573 46.7923" stroke="black" stroke-linejoin="bevel"/>
<path d="M72.7366 23.6674L83.5053 29.8811L63.3575 41.5067L52.5889 35.293L72.7366 23.6674Z" fill="white" stroke="black" stroke-linejoin="bevel"/>
<path d="M102.466 28.948L57.6047 54.834L33.627 40.9984" stroke="black" stroke-linejoin="bevel"/>
<path d="M102.466 31.3484L57.6047 57.2344L33.627 43.3988" stroke="black" stroke-linejoin="bevel"/>
<path d="M46.8629 21.4356C43.289 23.6099 37.4946 23.6099 33.9207 21.4356C30.3468 19.2613 30.3468 15.736 33.9207 13.5617C37.4946 11.3873 43.289 11.3873 46.8629 13.5617C50.4368 15.736 50.4368 19.2613 46.8629 21.4356Z" stroke="black" stroke-linejoin="bevel"/>
</svg>
