<svg width="87" height="25" fill="none" xmlns="http://www.w3.org/2000/svg"><path d="M3.644 9.082c0-.392.08-.735.238-1.029a1.68 1.68 0 01.651-.686 1.84 1.84 0 01.945-.245c.336 0 .64.082.91.245.27.163.47.376.595.637V5.82h.49V11h-.49v-.854a1.494 1.494 0 01-.574.658 1.72 1.72 0 01-.938.252 1.84 1.84 0 01-.945-.245 1.728 1.728 0 01-.65-.693 2.23 2.23 0 01-.232-1.036zm3.34.007c0-.308-.064-.579-.19-.812a1.384 1.384 0 00-1.232-.728c-.27 0-.513.06-.728.182a1.308 1.308 0 00-.51.532 1.725 1.725 0 00-.183.819c0 .313.06.588.182.826.126.233.297.413.511.539.215.121.458.182.728.182a1.384 1.384 0 001.232-.728c.126-.233.19-.504.19-.812zm8.006-.196c0 .168-.005.296-.014.385h-3.171c.014.29.084.537.21.742.126.205.291.362.497.469.205.103.43.154.672.154.317 0 .583-.077.798-.231a1.08 1.08 0 00.434-.623h.518a1.629 1.629 0 01-.602.917c-.304.233-.686.35-1.148.35-.36 0-.681-.08-.966-.238a1.758 1.758 0 01-.672-.686 2.19 2.19 0 01-.238-1.043c0-.397.08-.744.238-1.043.159-.299.38-.527.665-.686.284-.159.609-.238.973-.238s.681.08.952.238c.275.159.485.373.63.644.15.266.224.562.224.889zm-.497-.014a1.339 1.339 0 00-.175-.728 1.136 1.136 0 00-.483-.455 1.482 1.482 0 00-.672-.154c-.364 0-.675.117-.931.35-.257.233-.4.562-.427.987h2.688zm5.691 1.645l1.288-3.346h.518L20.457 11h-.553l-1.533-3.822h.525l1.288 3.346zm8.868-1.631c0 .168-.004.296-.014.385h-3.17c.014.29.084.537.21.742.125.205.291.362.497.469.205.103.429.154.672.154.317 0 .583-.077.797-.231a1.08 1.08 0 00.434-.623h.518a1.628 1.628 0 01-.601.917c-.304.233-.686.35-1.148.35-.36 0-.682-.08-.966-.238a1.758 1.758 0 01-.672-.686 2.19 2.19 0 01-.239-1.043c0-.397.08-.744.238-1.043.16-.299.38-.527.665-.686.285-.159.61-.238.974-.238.363 0 .68.08.951.238.276.159.486.373.63.644.15.266.224.562.224.889zm-.497-.014a1.338 1.338 0 00-.174-.728 1.136 1.136 0 00-.483-.455 1.481 1.481 0 00-.672-.154c-.364 0-.675.117-.931.35-.257.233-.4.562-.428.987h2.688zM33.38 5.82V11h-.49V5.82h.49zm5.723 5.236c-.36 0-.684-.08-.973-.238a1.808 1.808 0 01-.68-.686 2.14 2.14 0 01-.244-1.043c0-.397.084-.742.252-1.036.168-.299.396-.527.686-.686.289-.163.613-.245.973-.245.359 0 .683.082.973.245.294.159.522.387.686.686.168.294.252.64.252 1.036 0 .392-.084.737-.252 1.036-.168.299-.4.53-.693.693a2.03 2.03 0 01-.98.238zm0-.427c.252 0 .485-.056.7-.168a1.33 1.33 0 00.518-.518c.135-.233.203-.518.203-.854 0-.336-.066-.618-.196-.847a1.258 1.258 0 00-.518-.518 1.443 1.443 0 00-.7-.175c-.252 0-.486.058-.7.175a1.258 1.258 0 00-.518.518c-.126.229-.19.511-.19.847 0 .336.064.62.19.854.13.229.3.401.51.518.215.112.449.168.7.168zm6.24-2.611a1.53 1.53 0 01.575-.637c.266-.173.58-.259.945-.259.345 0 .655.082.93.245.28.159.498.387.652.686.158.294.238.637.238 1.029 0 .392-.08.737-.238 1.036-.154.299-.371.53-.651.693a1.79 1.79 0 01-.931.245 1.72 1.72 0 01-.938-.252 1.561 1.561 0 01-.581-.644v2.646h-.483V7.178h.483v.84zm2.843 1.064c0-.317-.063-.59-.19-.819a1.263 1.263 0 00-.503-.532 1.453 1.453 0 00-.728-.182 1.356 1.356 0 00-1.232.728 1.683 1.683 0 00-.19.812c0 .308.064.579.19.812a1.356 1.356 0 001.232.728c.27 0 .513-.06.728-.182.215-.126.383-.306.504-.539a1.74 1.74 0 00.189-.826zm7.796-.189c0 .168-.004.296-.014.385h-3.17c.013.29.083.537.21.742.125.205.291.362.496.469.206.103.43.154.672.154.318 0 .584-.077.798-.231a1.08 1.08 0 00.434-.623h.518a1.628 1.628 0 01-.602.917c-.303.233-.686.35-1.148.35-.359 0-.68-.08-.966-.238a1.76 1.76 0 01-.672-.686 2.192 2.192 0 01-.238-1.043c0-.397.08-.744.238-1.043.16-.299.38-.527.665-.686.285-.159.61-.238.973-.238.364 0 .682.08.952.238.276.159.486.373.63.644.15.266.224.562.224.889zm-.497-.014a1.337 1.337 0 00-.175-.728 1.135 1.135 0 00-.483-.455 1.481 1.481 0 00-.672-.154c-.364 0-.674.117-.93.35-.257.233-.4.562-.428.987h2.688zm4.11.203c0-.392.08-.735.238-1.029a1.69 1.69 0 01.65-.686 1.84 1.84 0 01.946-.245c.336 0 .64.082.91.245.27.163.469.376.595.637V5.82h.49V11h-.49v-.854a1.493 1.493 0 01-.574.658 1.72 1.72 0 01-.938.252 1.84 1.84 0 01-.945-.245 1.729 1.729 0 01-.651-.693 2.23 2.23 0 01-.231-1.036zm3.339.007a1.67 1.67 0 00-.19-.812 1.384 1.384 0 00-1.232-.728c-.27 0-.512.06-.727.182a1.308 1.308 0 00-.511.532 1.726 1.726 0 00-.182.819c0 .313.06.588.182.826.126.233.296.413.51.539.216.121.458.182.729.182a1.384 1.384 0 001.232-.728c.126-.233.189-.504.189-.812zm9.655-2.632a.344.344 0 01-.252-.105.352.352 0 01-.105-.259.33.33 0 01.105-.252.344.344 0 01.252-.105c.098 0 .181.035.252.105a.33.33 0 01.105.252.352.352 0 01-.105.259.344.344 0 01-.252.105zm.245.721V11h-.49V7.178h.49zm5.841-.07c.457 0 .83.142 1.12.427.29.28.434.688.434 1.225V11h-.483V8.816c0-.415-.105-.733-.315-.952-.205-.22-.488-.329-.847-.329-.369 0-.663.117-.882.35-.22.233-.329.576-.329 1.029V11h-.49V7.178h.49v.651a1.23 1.23 0 01.525-.532c.229-.126.488-.189.777-.189zM5.597 15.252c.2-.312.476-.564.828-.756.352-.192.764-.288 1.236-.288.552 0 1.052.14 1.5.42.448.28.8.68 1.056 1.2.264.52.396 1.124.396 1.812s-.132 1.296-.396 1.824c-.256.52-.608.924-1.056 1.212-.448.28-.948.42-1.5.42-.464 0-.876-.096-1.236-.288a2.267 2.267 0 01-.828-.744v4.128H3.545v-9.888h2.052v.948zm2.928 2.388c0-.512-.144-.912-.432-1.2a1.379 1.379 0 00-1.044-.444c-.408 0-.756.148-1.044.444-.28.296-.42.7-.42 1.212s.14.916.42 1.212c.288.296.636.444 1.044.444.408 0 .756-.148 1.044-.444.288-.304.432-.712.432-1.224zm5.216-5.52V21H11.69v-8.88h2.052zm1.08 5.52c0-.688.127-1.292.383-1.812.264-.52.62-.92 1.068-1.2.448-.28.948-.42 1.5-.42.472 0 .884.096 1.236.288.36.192.636.444.828.756v-.948h2.052V21h-2.052v-.948c-.2.312-.48.564-.84.756-.352.192-.764.288-1.236.288-.544 0-1.04-.14-1.488-.42a3.038 3.038 0 01-1.068-1.212c-.256-.528-.384-1.136-.384-1.824zm5.015.012c0-.512-.144-.916-.432-1.212a1.365 1.365 0 00-1.032-.444c-.408 0-.756.148-1.044.444-.28.288-.42.688-.42 1.2s.14.92.42 1.224c.288.296.636.444 1.044.444.408 0 .752-.148 1.032-.444.288-.296.432-.7.432-1.212zm6.26 3.444c-.583 0-1.103-.1-1.56-.3-.455-.2-.815-.472-1.08-.816a2.193 2.193 0 01-.443-1.176h2.028a.78.78 0 00.324.564c.192.144.428.216.708.216.256 0 .452-.048.588-.144a.47.47 0 00.216-.396c0-.192-.1-.332-.3-.42-.2-.096-.524-.2-.972-.312a9.887 9.887 0 01-1.2-.348 2.155 2.155 0 01-.828-.588c-.232-.272-.348-.636-.348-1.092 0-.384.104-.732.312-1.044.216-.32.528-.572.936-.756.416-.184.908-.276 1.476-.276.84 0 1.5.208 1.98.624.488.416.768.968.84 1.656h-1.896a.809.809 0 00-.312-.552c-.168-.136-.392-.204-.672-.204-.24 0-.424.048-.552.144a.426.426 0 00-.192.372c0 .192.1.336.3.432.208.096.528.192.96.288.496.128.9.256 1.212.384.312.12.584.32.816.6.24.272.364.64.372 1.104 0 .392-.112.744-.336 1.056-.216.304-.532.544-.948.72-.408.176-.884.264-1.428.264zm7.7-1.836V21h-1.044c-.744 0-1.324-.18-1.74-.54-.416-.368-.624-.964-.624-1.788v-2.664h-.816v-1.704h.816v-1.632h2.052v1.632h1.344v1.704H32.44v2.688c0 .2.048.344.144.432.096.088.256.132.48.132h.732zm2.103 1.836c-.36 0-.656-.104-.888-.312a1.058 1.058 0 01-.336-.792c0-.32.112-.588.336-.804.232-.216.528-.324.888-.324.352 0 .64.108.864.324.232.216.348.484.348.804 0 .312-.116.576-.348.792-.224.208-.512.312-.864.312zm2.019-3.456c0-.688.128-1.292.384-1.812.264-.52.62-.92 1.068-1.2.448-.28.948-.42 1.5-.42.472 0 .884.096 1.236.288.36.192.636.444.828.756v-.948h2.052V21h-2.052v-.948c-.2.312-.48.564-.84.756-.352.192-.764.288-1.236.288-.544 0-1.04-.14-1.488-.42a3.038 3.038 0 01-1.068-1.212c-.256-.528-.384-1.136-.384-1.824zm5.016.012c0-.512-.144-.916-.432-1.212a1.365 1.365 0 00-1.032-.444c-.408 0-.756.148-1.044.444-.28.288-.42.688-.42 1.2s.14.92.42 1.224c.288.296.636.444 1.044.444.408 0 .752-.148 1.032-.444.288-.296.432-.7.432-1.212zm6.08-3.444c.473 0 .885.096 1.237.288.36.192.636.444.828.756v-.948h2.052v6.684c0 .616-.124 1.172-.372 1.668-.24.504-.612.904-1.116 1.2-.496.296-1.116.444-1.86.444-.992 0-1.796-.236-2.412-.708-.616-.464-.968-1.096-1.056-1.896h2.028a.95.95 0 00.456.6c.24.152.536.228.888.228.424 0 .76-.124 1.008-.372.256-.24.384-.628.384-1.164v-.948c-.2.312-.476.568-.828.768-.352.192-.764.288-1.236.288-.552 0-1.052-.14-1.5-.42a3.038 3.038 0 01-1.068-1.212c-.256-.528-.384-1.136-.384-1.824 0-.688.128-1.292.384-1.812.264-.52.62-.92 1.068-1.2.448-.28.948-.42 1.5-.42zm2.065 3.444c0-.512-.144-.916-.432-1.212a1.365 1.365 0 00-1.032-.444c-.408 0-.756.148-1.044.444-.28.288-.42.688-.42 1.2s.14.92.42 1.224c.288.296.636.444 1.044.444.408 0 .752-.148 1.032-.444.288-.296.432-.7.432-1.212zm9.848-.108c0 .192-.012.392-.036.6h-4.644c.032.416.164.736.396.96.24.216.532.324.876.324.512 0 .868-.216 1.068-.648h2.184c-.112.44-.316.836-.612 1.188a2.979 2.979 0 01-1.092.828c-.44.2-.932.3-1.476.3-.656 0-1.24-.14-1.752-.42a2.987 2.987 0 01-1.2-1.2c-.288-.52-.432-1.128-.432-1.824 0-.696.14-1.304.42-1.824.288-.52.688-.92 1.2-1.2.512-.28 1.1-.42 1.764-.42.648 0 1.224.136 1.728.408.504.272.896.66 1.176 1.164.288.504.432 1.092.432 1.764zm-2.1-.54c0-.352-.12-.632-.36-.84-.24-.208-.54-.312-.9-.312-.344 0-.636.1-.876.3-.232.2-.376.484-.432.852h2.568zm7.263-2.772c.784 0 1.408.256 1.872.768.472.504.708 1.2.708 2.088V21h-2.04v-3.636c0-.448-.116-.796-.348-1.044-.232-.248-.544-.372-.936-.372s-.704.124-.936.372c-.232.248-.348.596-.348 1.044V21H62.01v-6.696h2.052v.888c.208-.296.488-.528.84-.696a2.62 2.62 0 011.188-.264zm3.598 3.42c0-.696.14-1.304.42-1.824.288-.52.684-.92 1.188-1.2.512-.28 1.096-.42 1.752-.42.84 0 1.54.22 2.1.66.568.44.94 1.06 1.116 1.86H74.08c-.184-.512-.54-.768-1.068-.768-.376 0-.676.148-.9.444-.224.288-.336.704-.336 1.248s.112.964.336 1.26c.224.288.524.432.9.432.528 0 .884-.256 1.068-.768h2.184c-.176.784-.548 1.4-1.116 1.848-.568.448-1.268.672-2.1.672-.656 0-1.24-.14-1.752-.42-.504-.28-.9-.68-1.188-1.2-.28-.52-.42-1.128-.42-1.824zM84.2 14.304L80 24.18h-2.208l1.536-3.408-2.724-6.468h2.292l1.548 4.188 1.536-4.188h2.22z" fill="#fff"/></svg>